<?xml version="1.0" encoding="UTF-8"?>
<svg version="1.1" xmlns="http://www.w3.org/2000/svg" width="399" height="411">
<path d="M0 0 C1.24527922 0.00539716 1.24527922 0.00539716 2.5157156 0.01090336 C3.39802066 0.01078282 4.28032572 0.01066229 5.18936729 0.0105381 C8.05916161 0.01128738 10.92889181 0.0189163 13.79867458 0.0267725 C15.56490962 0.02824187 17.33114508 0.02926261 19.09738064 0.02982426 C25.66318316 0.03507769 32.22897637 0.04903877 38.79476833 0.06192875 C53.45914333 0.08255375 68.12351833 0.10317875 83.23226833 0.12442875 C83.23226833 42.36442875 83.23226833 84.60442875 83.23226833 128.12442875 C68.56789333 128.14505375 53.90351833 128.16567875 38.79476833 128.18692875 C34.15744656 128.19603275 29.52012478 128.20513676 24.7422781 128.21451664 C19.09738064 128.21903324 19.09738064 128.21903324 16.45820522 128.21987247 C14.60741339 128.22141219 12.75662259 128.22493768 10.90583706 128.23000431 C8.10911206 128.23728047 5.31244858 128.23833621 2.5157156 128.23795414 C1.27043638 128.2433513 1.27043638 128.2433513 0 128.2488575 C-5.65370533 128.23845509 -5.65370533 128.23845509 -6.76773167 127.12442875 C-6.8659626 125.4945132 -6.89405116 123.86032889 -6.89471531 122.22745609 C-6.89753513 121.16734318 -6.90035496 120.10723026 -6.90326023 119.01499271 C-6.901236 117.84196598 -6.89921177 116.66893925 -6.8971262 115.46036625 C-6.89887852 114.23287663 -6.90063084 113.005387 -6.90243626 111.74070072 C-6.9060945 108.36474596 -6.90522131 104.98885214 -6.90205717 101.61290073 C-6.89953323 98.08728291 -6.9018712 94.56166777 -6.90344334 91.03604984 C-6.90526493 85.11433282 -6.90285898 79.19262826 -6.89810276 73.27091312 C-6.89266016 66.41526065 -6.89442282 59.55963792 -6.89992917 52.70398617 C-6.90446058 46.82798793 -6.90511071 40.95199868 -6.9024905 35.07599926 C-6.90092788 31.56208782 -6.90073354 28.04819038 -6.90402699 24.53427982 C-6.90743999 20.61900512 -6.9027155 16.70376398 -6.8971262 12.78849125 C-6.89915043 11.61546452 -6.90117466 10.44243778 -6.90326023 9.23386478 C-6.90044041 8.17375187 -6.89762058 7.11363895 -6.89471531 6.02140141 C-6.89433828 5.09445469 -6.89396126 4.16750797 -6.89357281 3.21247196 C-6.6314807 -1.13634144 -3.6653217 0.00674393 0 0 Z M19.23226833 29.12442875 C15.79496345 34.21322035 14.23226833 37.93427071 14.23226833 44.12442875 C19.84226833 44.12442875 25.45226833 44.12442875 31.23226833 44.12442875 C31.23226833 36.86442875 31.23226833 29.60442875 31.23226833 22.12442875 C26.10065695 22.12442875 22.76736134 25.63267313 19.23226833 29.12442875 Z M45.23226833 22.12442875 C45.23226833 29.38442875 45.23226833 36.64442875 45.23226833 44.12442875 C48.44568202 45.73113559 51.86185802 44.9495373 55.35726833 44.68692875 C56.1113699 44.63472172 56.86547146 44.58251469 57.64242458 44.52872562 C59.50606203 44.39897871 61.36921829 44.26235387 63.23226833 44.12442875 C62.30966303 36.82981111 60.3546619 31.53139974 55.23226833 26.12442875 C51.99907324 23.85305371 49.28838863 22.12442875 45.23226833 22.12442875 Z M14.23226833 59.12442875 C14.23226833 62.75442875 14.23226833 66.38442875 14.23226833 70.12442875 C19.84226833 70.12442875 25.45226833 70.12442875 31.23226833 70.12442875 C31.23226833 66.49442875 31.23226833 62.86442875 31.23226833 59.12442875 C25.62226833 59.12442875 20.01226833 59.12442875 14.23226833 59.12442875 Z M46.23226833 59.12442875 C46.04664333 60.75380375 45.86101833 62.38317875 45.66976833 64.06192875 C45.56535427 64.97845219 45.46094021 65.89497562 45.35336208 66.8392725 C45.31340115 67.59337406 45.27344021 68.34747562 45.23226833 69.12442875 C46.44655821 70.56831446 46.44655821 70.56831446 50.04867458 70.222085 C51.63073515 70.21540964 53.21277992 70.2034475 54.79476833 70.18692875 C56.00423122 70.18016117 56.00423122 70.18016117 57.23812771 70.17325687 C59.2362059 70.16143393 61.23424616 70.14349789 63.23226833 70.12442875 C63.23226833 66.49442875 63.23226833 62.86442875 63.23226833 59.12442875 C57.62226833 59.12442875 52.01226833 59.12442875 46.23226833 59.12442875 Z M14.23226833 84.12442875 C14.12453992 87.56276068 14.04508464 90.99773581 13.98226833 94.43692875 C13.94875271 95.41339359 13.91523708 96.38985844 13.88070583 97.39591312 C13.86781521 98.33370609 13.85492458 99.27149906 13.84164333 100.23771 C13.82069607 101.10178471 13.7997488 101.96585941 13.77816677 102.8561182 C14.04050214 105.27158264 14.04050214 105.27158264 16.05453396 106.91153812 C19.10736304 108.61181334 21.51744435 108.41587347 24.98226833 108.31192875 C27.04476833 108.25005375 29.10726833 108.18817875 31.23226833 108.12442875 C31.23226833 100.20442875 31.23226833 92.28442875 31.23226833 84.12442875 C25.62226833 84.12442875 20.01226833 84.12442875 14.23226833 84.12442875 Z M46.23226833 84.12442875 C46.23226833 92.04442875 46.23226833 99.96442875 46.23226833 108.12442875 C48.29476833 108.18630375 50.35726833 108.24817875 52.48226833 108.31192875 C53.64242458 108.34673344 54.80258083 108.38153812 55.99789333 108.4173975 C59.58789863 108.09221586 60.69942765 107.60840434 63.23226833 105.12442875 C63.78140412 102.81352147 63.78140412 102.81352147 63.62289333 100.23771 C63.61000271 99.29991703 63.59711208 98.36212406 63.58383083 97.39591312 C63.55031521 96.41944828 63.51679958 95.44298344 63.48226833 94.43692875 C63.46422146 93.44886234 63.44617458 92.46079594 63.42758083 91.44278812 C63.38043366 89.00292189 63.30869 86.56355356 63.23226833 84.12442875 C57.62226833 84.12442875 52.01226833 84.12442875 46.23226833 84.12442875 Z " fill="#000000" transform="translate(33.76773166656494,58.87557125091553)"/>
<path d="M0 0 C29.7 0 59.4 0 90 0 C90 42.24 90 84.48 90 128 C60.3 128 30.6 128 0 128 C0 85.76 0 43.52 0 0 Z M27 28 C22.48343284 32.74239552 20.97156027 37.60510332 20 44 C23.20975655 45.60487828 26.63346002 44.82448599 30.125 44.5625 C32.72375 44.376875 35.3225 44.19125 38 44 C38 36.74 38 29.48 38 22 C33.24386068 22 30.46679748 24.93946785 27 28 Z M52 22 C52 29.26 52 36.52 52 44 C57.94 44.33 63.88 44.66 70 45 C68.77073662 35.16589297 66.1972682 30.49386186 58.84375 24.12890625 C56.62855048 22.62689591 56.62855048 22.62689591 52 22 Z M20 59 C19.979375 60.629375 19.95875 62.25875 19.9375 63.9375 C19.92589844 64.85402344 19.91429687 65.77054687 19.90234375 66.71484375 C19.74050951 68.96593327 19.74050951 68.96593327 21 70 C23.86267567 70.07325168 26.700719 70.09238205 29.5625 70.0625 C30.77196289 70.05573242 30.77196289 70.05573242 32.00585938 70.04882812 C34.00393756 70.03700518 36.00197783 70.01906914 38 70 C38 66.37 38 62.74 38 59 C32.06 59 26.12 59 20 59 Z M52 59 C52 62.63 52 66.26 52 70 C57.94 70 63.88 70 70 70 C70 66.37 70 62.74 70 59 C64.06 59 58.12 59 52 59 Z M20 84 C20.05986756 87.43939128 20.14683366 90.87436957 20.25 94.3125 C20.26417969 95.28896484 20.27835937 96.26542969 20.29296875 97.27148438 C20.32519531 98.20927734 20.35742188 99.14707031 20.390625 100.11328125 C20.41157227 100.97735596 20.43251953 101.84143066 20.45410156 102.73168945 C20.82127912 105.14393999 20.82127912 105.14393999 22.8359375 106.78710938 C25.87991021 108.49316267 28.29093238 108.29127203 31.75 108.1875 C33.8125 108.125625 35.875 108.06375 38 108 C38 100.08 38 92.16 38 84 C32.06 84 26.12 84 20 84 Z M52 84 C52 91.92 52 99.84 52 108 C60.12158467 108.38742081 60.12158467 108.38742081 68 107 C70.13604308 103.79593538 70.24208908 103.00399253 70.1953125 99.33203125 C70.18886719 98.43935547 70.18242187 97.54667969 70.17578125 96.62695312 C70.15902344 95.69818359 70.14226562 94.76941406 70.125 93.8125 C70.11597656 92.87212891 70.10695313 91.93175781 70.09765625 90.96289062 C70.07409207 88.64181843 70.03822121 86.32087711 70 84 C64.06 84 58.12 84 52 84 Z " fill="#000000" transform="translate(281,59)"/>
<path d="M0 0 C4.37283376 0.99514655 7.81354324 3.81778673 11.375 6.4375 C11.98512939 6.8799707 12.59525879 7.32244141 13.22387695 7.77832031 C15.15333524 9.18004036 17.07701339 10.58941867 19 12 C20.19386837 12.87128842 21.3878762 13.74238578 22.58203125 14.61328125 C26.39520694 17.39911321 30.1983338 20.19849053 34 23 C34.74975098 23.55236328 35.49950195 24.10472656 36.27197266 24.67382812 C39.49596089 27.04918888 42.71975338 29.4248147 45.94311523 31.80102539 C50.87437986 35.43582133 55.8093819 39.06542861 60.75 42.6875 C61.34385498 43.12312256 61.93770996 43.55874512 62.54956055 44.00756836 C65.75990248 46.36158562 68.97387895 48.7104996 72.19140625 51.0546875 C73.22539551 51.80939331 73.22539551 51.80939331 74.28027344 52.5793457 C75.60408117 53.54548361 76.92890173 54.51023575 78.25488281 55.47338867 C80.64249529 57.21735847 82.90573696 58.90573696 85 61 C85.18768653 63.9292303 85.25553641 66.76228397 85.23046875 69.69140625 C85.23001053 70.55185043 85.22955231 71.41229462 85.2290802 72.29881287 C85.22605705 74.11873757 85.21816888 75.93865967 85.20581055 77.75854492 C85.18755148 80.55461724 85.18530085 83.35035866 85.18554688 86.14648438 C85.1806319 87.91146122 85.17480367 89.6764358 85.16796875 91.44140625 C85.16685593 92.28304825 85.1657431 93.12469025 85.16459656 93.99183655 C85.11604705 99.88395295 85.11604705 99.88395295 84 101 C81.86106733 101.09692063 79.71887033 101.12186803 77.57774353 101.12025452 C76.89901941 101.12110894 76.2202953 101.12196337 75.52100378 101.12284368 C73.23004074 101.12450041 70.93914974 101.118974 68.64819336 101.11352539 C67.01259869 101.11324353 65.3770039 101.11340122 63.7414093 101.1139679 C59.28705414 101.11425593 54.83272566 101.10835824 50.37837672 101.10139394 C45.72853526 101.09516139 41.07869326 101.09455668 36.42884827 101.09336853 C27.61738298 101.09025492 18.80593003 101.08204113 9.99447018 101.07201904 C-0.03438108 101.06085882 -10.06323291 101.05534768 -20.09208882 101.05032361 C-40.72806611 101.03985854 -61.36403228 101.02225853 -82 101 C-82.37384946 95.36311696 -82.64421362 89.73357065 -82.82397461 84.0871582 C-82.89893722 82.17246808 -83.00096858 80.2586234 -83.1315918 78.34692383 C-84.15941314 62.9054197 -84.15941314 62.9054197 -80.56138611 58.06439209 C-77.04633982 54.70013677 -73.0803086 52.27084613 -68.80281067 49.99290657 C-66.33139133 48.63176059 -64.13496245 46.97339793 -61.90625 45.25 C-61.1740625 44.71004395 -60.441875 44.17008789 -59.6875 43.61376953 C-58.965625 43.08122559 -58.24375 42.54868164 -57.5 42 C-41.78632266 30.41562707 -26.02936486 18.89407331 -10.19213867 7.47900391 C-9.44939697 6.9432373 -8.70665527 6.4074707 -7.94140625 5.85546875 C-7.27826416 5.37746826 -6.61512207 4.89946777 -5.93188477 4.40698242 C-4.55853468 3.40677813 -3.2173302 2.36177688 -1.90063477 1.28808594 C-1.27342529 0.86301758 -0.64621582 0.43794922 0 0 Z M-23 36 C-28.59819584 44.04829682 -31.3096507 52.64214424 -29.5703125 62.4140625 C-27.1648884 72.00606231 -21.57189282 78.74734291 -13.1796875 83.84765625 C-6.09633021 87.59244191 1.89212599 88.25813416 9.6484375 86.34765625 C18.96338948 83.00860423 26.27381203 76.35501209 30.75 67.5625 C33.68889695 58.97312714 33.02561184 49.26536265 29.1875 41.109375 C24.94493246 33.57323529 18.57494938 28.89903559 10.6875 25.625 C-2.57130039 23.3777457 -13.86135136 25.64015109 -23 36 Z " fill="#000000" transform="translate(198,194)"/>
<path d="M0 0 C0.82862045 0.00359528 1.65724091 0.00719055 2.51097107 0.01089478 C3.81329178 0.01067574 3.81329178 0.01067574 5.141922 0.01045227 C8.02594967 0.01115171 10.9099136 0.01894554 13.79393005 0.02676392 C15.78790247 0.02862799 17.78187535 0.03005194 19.77584839 0.03105164 C25.03498082 0.03487769 30.29408583 0.04470871 35.5532074 0.05575562 C40.91534555 0.06596786 46.27748811 0.07054885 51.63963318 0.07559204 C62.16894213 0.0863309 72.69823069 0.10340837 83.2275238 0.12442017 C83.2932838 1.56944859 83.34032592 3.01533756 83.37937927 4.46133423 C83.42166153 5.66889374 83.42166153 5.66889374 83.46479797 6.90084839 C83.2275238 9.12442017 83.2275238 9.12442017 80.7978363 11.73379517 C79.66864952 12.47742653 78.51819239 13.18938941 77.3525238 13.87442017 C76.07553049 14.70759883 74.79954009 15.54231606 73.5243988 16.37832642 C72.8353949 16.81547974 72.14639099 17.25263306 71.43650818 17.70303345 C67.41209139 20.29257308 63.50874686 23.0486909 59.6025238 25.81192017 C58.83311462 26.33431274 58.06370544 26.85670532 57.27098083 27.39492798 C52.42126074 30.80828992 49.59968149 33.64264645 47.2275238 39.12442017 C46.28338029 44.62960989 46.49431039 49.54519126 48.8525238 54.62442017 C52.23722321 58.18726165 55.5577456 60.56782743 60.2275238 62.12442017 C61.93529941 62.16806938 63.64465494 62.16425384 65.3525238 62.12442017 C66.9770871 62.08674913 68.60319142 62.07784433 70.2275238 62.12442017 C71.2275238 63.12442017 71.2275238 63.12442017 71.34104919 66.81802368 C71.34089004 68.46313309 71.33519369 70.10824748 71.32518005 71.75332642 C71.32376511 72.61755722 71.32235016 73.48178802 71.32089233 74.37220764 C71.31527619 77.14381309 71.30272099 79.91533897 71.2900238 82.68692017 C71.28501088 84.56126796 71.28044762 86.43561702 71.27635193 88.30996704 C71.26530152 92.9148156 71.2480261 97.51960438 71.2275238 102.12442017 C61.20532329 102.27800284 51.18305909 102.42618459 41.160676 102.56738377 C36.50737688 102.63311285 31.85412099 102.70073436 27.20091248 102.77261353 C22.71413552 102.84185327 18.22731314 102.90620991 13.74041557 102.9671154 C12.02469761 102.99127571 10.30900391 103.01722494 8.59333992 103.0449543 C6.19873479 103.08335769 3.80412393 103.11552006 1.40940857 103.14614868 C0.33479118 103.1655677 0.33479118 103.1655677 -0.76153564 103.18537903 C-2.43187458 103.20348926 -4.10264936 103.16956963 -5.7724762 103.12442017 C-7.72399305 101.17290331 -6.89938421 98.19933386 -6.90800476 95.60151672 C-6.90598053 94.66225845 -6.9039563 93.72300018 -6.90187073 92.75527954 C-6.90362305 91.77162918 -6.90537537 90.78797882 -6.90718079 89.77452087 C-6.91160124 86.50571964 -6.90866063 83.236972 -6.9052887 79.96817017 C-6.90596168 77.70754994 -6.90693166 75.44692979 -6.90818787 73.18630981 C-6.9096651 68.44155185 -6.90750946 63.69681267 -6.90284729 58.95205688 C-6.89714999 52.85503392 -6.90042886 46.75805498 -6.90641975 40.66103363 C-6.91002467 35.99093288 -6.9088871 31.32084264 -6.90629196 26.65074158 C-6.9056225 24.40195206 -6.90645178 22.15316159 -6.90877151 19.90437317 C-6.91129691 16.76740978 -6.90745905 13.63051875 -6.90187073 10.49356079 C-6.90389496 9.55430252 -6.90591919 8.61504425 -6.90800476 7.64732361 C-6.88266988 0.01261121 -6.88266988 0.01261121 0 0 Z " fill="#000000" transform="translate(33.77247619628906,198.87557983398438)"/>
<path d="M0 0 C29.7 0 59.4 0 90 0 C90.04010881 25.41561552 90.04010881 25.41561552 90.04882812 36.20898438 C90.05481717 43.58781651 90.0619191 50.9666363 90.07543945 58.34545898 C90.08626629 64.29116006 90.0922764 70.23684789 90.09487724 76.18255806 C90.09673186 78.45646943 90.10035317 80.73038004 90.10573006 83.00428581 C90.11293778 86.1772712 90.11399106 89.35020117 90.11352539 92.52319336 C90.11712067 93.47337341 90.12071594 94.42355347 90.12442017 95.40252686 C90.11405216 101.88594784 90.11405216 101.88594784 89 103 C86.74609395 103.09967482 84.48901866 103.1279983 82.23291016 103.12939453 C81.17190346 103.13202301 81.17190346 103.13202301 80.08946228 103.13470459 C77.73930443 103.13912394 75.38922119 103.13618421 73.0390625 103.1328125 C71.41100042 103.13348567 69.78293844 103.1344558 68.15487671 103.13571167 C64.73670498 103.13718888 61.31855933 103.13503392 57.90039062 103.13037109 C53.5164513 103.12468281 49.13257331 103.12794694 44.74863625 103.13394356 C41.38407936 103.13755626 38.01953703 103.13640716 34.65497971 103.13381577 C33.03862882 103.13314799 31.42227662 103.13396971 29.80592728 103.13629532 C27.54587557 103.13883244 25.28592321 103.13496584 23.02587891 103.12939453 C21.09514023 103.12820114 21.09514023 103.12820114 19.12539673 103.12698364 C16 103 16 103 13 102 C13 89.13 13 76.26 13 63 C15 62 15 62 18.6875 62.125 C24.43260829 62.17703902 28.47243287 60.32389151 32.8125 56.5625 C36.80003922 51.89138263 37.40636565 48.49922316 37.23828125 42.45703125 C36.60591919 35.93644537 32.94785517 32.89666761 28.2734375 28.87036133 C24.64043015 25.88147932 20.83934431 23.15321368 17 20.4375 C14.73360363 18.82278928 12.46922718 17.20666997 10.21875 15.56982422 C8.72894647 14.51574887 7.20630091 13.50674909 5.65625 12.54345703 C4.55796875 11.82778564 4.55796875 11.82778564 3.4375 11.09765625 C2.77621094 10.69168213 2.11492187 10.28570801 1.43359375 9.86743164 C0 8 0 8 0 0 Z " fill="#000000" transform="translate(281,199)"/>
<path d="M0 0 C0.673935 -0.00155999 1.34787 -0.00311998 2.04222727 -0.00472724 C4.31703233 -0.00873922 6.59177151 -0.00554685 8.86657715 -0.00241089 C10.49069763 -0.00376484 12.11481779 -0.00554474 13.73893738 -0.00772095 C18.16236556 -0.01229599 22.58577053 -0.01050543 27.00919914 -0.00734186 C31.62787821 -0.00481862 36.24655523 -0.0071557 40.86523438 -0.00872803 C48.62300983 -0.01054983 56.38077579 -0.00814314 64.1385498 -0.00338745 C73.12093127 0.00205519 82.10329004 0.00029254 91.08567095 -0.00521386 C98.78330954 -0.00974469 106.48094127 -0.01039568 114.17858076 -0.00777519 C118.78237245 -0.00621225 123.38615345 -0.00601911 127.98994446 -0.00931168 C132.31710185 -0.01218995 136.64422985 -0.0102155 140.97138405 -0.00441742 C142.56417098 -0.00308959 144.15696036 -0.00348433 145.74974632 -0.00568008 C147.91482253 -0.0083907 150.07980303 -0.00501159 152.24487305 0 C153.45941917 0.00037703 154.6739653 0.00075405 155.92531586 0.0011425 C158.62243652 0.12698364 158.62243652 0.12698364 159.62243652 1.12698364 C159.72281383 3.67749838 159.7586114 6.20095543 159.75183105 8.75198364 C159.75445953 9.94948242 159.75445953 9.94948242 159.75714111 11.1711731 C159.7615602 13.82313174 159.75862145 16.47502426 159.75524902 19.12698364 C159.75592205 20.96161919 159.75689206 22.79625465 159.75814819 24.63088989 C159.75962524 28.48115892 159.75747039 32.3314048 159.75280762 36.18167114 C159.74711032 41.12854861 159.75038929 46.07537184 159.75638008 51.02224731 C159.7599855 54.81220919 159.75884719 58.60215811 159.75625229 62.39212036 C159.75558297 64.2166647 159.75641162 66.04121019 159.75873184 67.86575317 C159.76125806 70.41119525 159.75741822 72.95654824 159.75183105 75.50198364 C159.75385529 76.26357788 159.75587952 77.02517212 159.75796509 77.80984497 C159.7366991 83.01272107 159.7366991 83.01272107 158.62243652 84.12698364 C156.43604199 84.1995731 154.24743263 84.21072147 152.05993652 84.18948364 C150.26362793 84.17594849 150.26362793 84.17594849 148.43103027 84.16213989 C147.04077637 84.14473755 147.04077637 84.14473755 145.62243652 84.12698364 C145.61696808 83.02943504 145.61696808 83.02943504 145.61138916 81.90971375 C145.57336805 74.98097084 145.51635646 68.05260997 145.43853378 61.1242075 C145.39918892 57.56302228 145.36693761 54.00207951 145.35144043 50.44070435 C145.33326162 46.33703799 145.28325442 42.23427512 145.23181152 38.13088989 C145.22996857 36.23192711 145.22996857 36.23192711 145.22808838 34.29460144 C145.09073679 25.93197282 144.30380632 18.80835344 138.18493652 12.68948364 C133.07210059 9.57190076 128.65723968 8.25850644 122.62243652 9.12698364 C117.03615048 10.75545817 113.59007032 13.56707585 110.64822388 18.53469849 C108.48521576 24.00087412 108.89612731 29.89243331 108.91540527 35.68948364 C108.90227056 37.090547 108.88696092 38.49159149 108.86958313 39.89260864 C108.82992608 43.55541075 108.81955536 47.21771537 108.81555176 50.88070679 C108.8061835 54.62831531 108.76874723 58.37563593 108.73376465 62.12307739 C108.66938548 69.4577666 108.63858311 76.7920006 108.62243652 84.12698364 C104.00243652 84.12698364 99.38243652 84.12698364 94.62243652 84.12698364 C94.607854 82.35130005 94.59327148 80.57561646 94.57824707 78.74612427 C94.52643305 72.85472138 94.46110383 66.96355002 94.38672161 61.07239532 C94.34214686 57.50337518 94.30286328 53.93446579 94.27600098 50.36526489 C94.24983801 46.91558503 94.20934642 43.46633436 94.15925026 40.016922 C94.13464336 38.0718155 94.12457046 36.12654249 94.11479187 34.18130493 C94.07058353 23.68300311 94.07058353 23.68300311 89.27726746 14.61538696 C85.21320118 10.99344329 81.61060616 9.31107342 76.24743652 8.81448364 C70.76610889 9.28701189 67.04901233 10.95402131 62.80993652 14.43948364 C59.06861778 19.03596096 58.37597274 23.59290747 58.30358887 29.40774536 C58.28371918 30.62855804 58.26384949 31.84937073 58.24337769 33.10717773 C58.23182648 34.41051056 58.22027527 35.71384338 58.20837402 37.05667114 C58.18964502 38.41574253 58.17007033 39.77480249 58.14968872 41.1338501 C58.09854411 44.69458256 58.05882448 48.25535265 58.02154541 51.81625366 C57.98139432 55.45638196 57.93035288 59.09635614 57.88024902 62.73635864 C57.7836993 69.86645975 57.70023579 76.99664969 57.62243652 84.12698364 C53.00243652 84.12698364 48.38243652 84.12698364 43.62243652 84.12698364 C43.607854 82.31577026 43.59327148 80.50455688 43.57824707 78.63845825 C43.52647398 72.63527594 43.46115571 66.63236724 43.38672161 60.62943172 C43.34210967 56.99200113 43.30283395 53.35468017 43.27600098 49.71707153 C43.24987555 46.2025607 43.20940953 42.68847383 43.15925026 39.17422676 C43.13459524 37.18974041 43.12456064 35.2050897 43.11479187 33.22047424 C42.98379332 25.14158617 42.56002331 19.69972433 37.30993652 13.31448364 C33.40855322 10.13893909 30.19648071 9.30187744 25.24743652 8.75198364 C19.51761461 9.34472384 15.36667573 11.42864547 11.24743652 15.43948364 C6.84090762 22.72720453 7.28465551 30.43290448 7.20837402 38.71682739 C7.18900787 40.01648941 7.16964172 41.31615143 7.14968872 42.65519714 C7.09862307 46.08932543 7.05886173 49.52349265 7.02154541 52.95779419 C6.98134421 56.47066679 6.93032589 59.98338102 6.88024902 63.49612427 C6.78379307 70.37296767 6.70029383 77.24990477 6.62243652 84.12698364 C2.00243652 84.12698364 -2.61756348 84.12698364 -7.37756348 84.12698364 C-7.4006866 73.32240279 -7.41847841 62.51782778 -7.42937565 51.71322727 C-7.43460454 46.69675895 -7.44170231 41.68030749 -7.45300293 36.66384888 C-7.46383158 31.82688671 -7.46984026 26.98994081 -7.47244072 22.15296745 C-7.47429501 20.30330079 -7.4779157 18.45363507 -7.48329353 16.6039753 C-7.49050368 14.0225135 -7.49155443 11.44111982 -7.49108887 8.85964966 C-7.49468414 8.08713364 -7.49827942 7.31461761 -7.50198364 6.51869202 C-7.4885187 -0.33540788 -6.68183902 0.00207421 0 0 Z " fill="#000000" transform="translate(123.3775634765625,305.8730163574219)"/>
<path d="M0 0 C2.95635181 1.86938886 5.83760403 3.79671044 8.65234375 5.87109375 C9.25401367 6.30768311 9.85568359 6.74427246 10.47558594 7.1940918 C11.78455374 8.14424021 13.09194995 9.09655663 14.39794922 10.05078125 C17.2448113 12.12758496 20.10418286 14.18686235 22.96289062 16.24731445 C25.2475329 17.89466438 27.53025669 19.54464096 29.8125 21.1953125 C32.90192242 23.42948208 35.99307409 25.66122144 39.0859375 27.890625 C46.14848843 32.98282658 53.20101719 38.08692882 60.21484375 43.24609375 C66.67372492 47.99587399 73.18430068 52.669442 79.71777344 57.31591797 C81.50138492 58.58458516 83.28411463 59.85447932 85.06640625 61.125 C85.66098633 61.54869873 86.25556641 61.97239746 86.86816406 62.40893555 C88.04622711 63.25057035 89.22269577 64.0944419 90.39746094 64.94067383 C93.15623009 66.92653227 95.92566953 68.8661758 98.75390625 70.75390625 C99.75164062 71.43195313 100.749375 72.11 101.77734375 72.80859375 C102.66035156 73.39125 103.54335938 73.97390625 104.453125 74.57421875 C107.07377612 77.15924937 107.31064653 78.93014032 107.46484375 82.55859375 C105.33440897 87.12381114 105.33440897 87.12381114 102.46484375 88.55859375 C98.11194051 89.30177235 95.81418447 88.35722925 92.30859375 85.94140625 C91.51445068 85.39508545 90.72030762 84.84876465 89.90209961 84.28588867 C86.07283427 81.57206995 82.29076612 78.80033734 78.52734375 75.99609375 C72.20254579 71.30847795 65.85579537 66.6556188 59.46484375 62.05859375 C50.89111412 55.88543334 42.38331699 49.62541589 33.88671875 43.34667969 C31.41463748 41.52152613 28.94013174 39.69970805 26.46484375 37.87890625 C25.23411133 36.97301758 25.23411133 36.97301758 23.97851562 36.04882812 C22.3636883 34.86119018 20.74782713 33.67495647 19.13085938 32.49023438 C15.63111777 29.92061754 12.15345458 27.33582553 8.74609375 24.64453125 C8.19429443 24.21309814 7.64249512 23.78166504 7.07397461 23.3371582 C5.64551091 22.21400466 4.22845827 21.07637866 2.8125 19.9375 C0.6401564 18.39138607 0.6401564 18.39138607 -1.47265625 18.57421875 C-4.41851001 19.98019441 -6.9833211 21.81377539 -9.59765625 23.74609375 C-10.20198486 24.1853418 -10.80631348 24.62458984 -11.42895508 25.07714844 C-13.4695865 26.56394915 -15.50270675 28.06063086 -17.53515625 29.55859375 C-19.02728541 30.65372532 -20.51947467 31.74877502 -22.01171875 32.84375 C-26.85947835 36.40642664 -31.69773551 39.98189818 -36.53515625 43.55859375 C-46.73332627 51.09682019 -56.95187228 58.60174281 -67.24707031 66.00708008 C-71.48494741 69.06051281 -75.68348436 72.15540847 -79.84765625 75.30859375 C-81.74130852 76.72817452 -83.63719461 78.14477972 -85.53515625 79.55859375 C-86.08574707 79.97189941 -86.63633789 80.38520508 -87.20361328 80.81103516 C-88.9282601 82.09666339 -90.6669417 83.36079506 -92.41015625 84.62109375 C-93.95316406 85.75224609 -93.95316406 85.75224609 -95.52734375 86.90625 C-98.90333574 88.76085339 -100.74460553 89.02447149 -104.53515625 88.55859375 C-107.41015625 86.99609375 -107.41015625 86.99609375 -109.53515625 84.55859375 C-110.47265625 81.30859375 -110.47265625 81.30859375 -109.53515625 77.55859375 C-106.57450059 74.38693368 -103.08525591 72.03018212 -99.53515625 69.55859375 C-97.93656245 68.40427416 -96.33797241 67.24994936 -94.73950195 66.09545898 C-92.97562618 64.82832863 -91.20371202 63.57318931 -89.4296875 62.3203125 C-85.16976423 59.30810207 -80.94693302 56.24549172 -76.72265625 53.18359375 C-70.81763435 48.90693778 -64.88027922 44.68129211 -58.91015625 40.49609375 C-52.69783356 36.13709612 -46.60670777 31.64101696 -40.55639648 27.06054688 C-35.07139813 22.92336803 -29.4887574 18.93895227 -23.84667969 15.01904297 C-20.26404692 12.52213178 -16.7476596 9.9761628 -13.3046875 7.2890625 C-12.62801025 6.76771729 -11.95133301 6.24637207 -11.25415039 5.70922852 C-9.97193784 4.71573239 -8.70082557 3.70768758 -7.44311523 2.68334961 C-3.22545563 -0.56159705 -3.22545563 -0.56159705 0 0 Z " fill="#010101" transform="translate(200.53515625,162.44140625)"/>
<path d="M0 0 C29.7 0 59.4 0 90 0 C90 17.16 90 34.32 90 52 C85.38 52 80.76 52 76 52 C75.15700861 48.62803445 74.9179377 46.56002491 75.04296875 43.19140625 C75.06423828 42.27939453 75.08550781 41.36738281 75.10742188 40.42773438 C75.16070837 38.52111743 75.22577156 36.61479243 75.30273438 34.70898438 C75.41846969 29.02541361 75.41846969 29.02541361 73.140625 23.8984375 C70.63107423 21.67281401 69.345275 21.08159207 66 21 C63.12526755 21.73539667 61.52523425 22.19438098 59.88134766 24.71582031 C58.79981082 27.51882826 58.67784372 29.85710525 58.5859375 32.859375 C58.55032715 33.86452148 58.5147168 34.86966797 58.47802734 35.90527344 C58.44402832 37.1740332 58.4100293 38.44279297 58.375 39.75 C58.189375 45.81375 58.189375 45.81375 58 52 C49.09 52 40.18 52 31 52 C30.75 39.25 30.75 39.25 30.70214844 35.24707031 C30.6715332 34.20131836 30.64091797 33.15556641 30.609375 32.078125 C30.58842773 31.00981445 30.56748047 29.94150391 30.54589844 28.84082031 C29.8780198 25.3652229 28.71683955 24.19363419 26 22 C24.15732132 20.91431497 24.15732132 20.91431497 22 21 C17.71388753 22.59514784 17.71388753 22.59514784 15 26 C14.85838491 27.87329756 14.77395012 29.75107465 14.71875 31.62890625 C14.68136719 32.74587891 14.64398438 33.86285156 14.60546875 35.01367188 C14.53504026 37.3834601 14.46472814 39.75325178 14.39453125 42.12304688 C14.35714844 43.23873047 14.31976563 44.35441406 14.28125 45.50390625 C14.23581055 47.04800171 14.23581055 47.04800171 14.18945312 48.62329102 C14 51 14 51 13 52 C8.71 52 4.42 52 0 52 C0 34.84 0 17.68 0 0 Z " fill="#000000" transform="translate(15,338)"/>
<path d="M0 0 C29.7 0 59.4 0 90 0 C90 17.16 90 34.32 90 52 C85.38 52 80.76 52 76 52 C75.97421875 50.16953125 75.9484375 48.3390625 75.921875 46.453125 C75.86560002 44.05205929 75.80825256 41.65101855 75.75 39.25 C75.73582031 38.0434375 75.72164063 36.836875 75.70703125 35.59375 C75.67480469 34.43359375 75.64257812 33.2734375 75.609375 32.078125 C75.5779541 30.47565918 75.5779541 30.47565918 75.54589844 28.84082031 C74.87612506 25.35536279 73.7457784 24.18013537 71 22 C67.74139356 20.74668983 66.52686102 20.76720094 63.3125 22.1875 C60.83871034 24.12641622 60.13218325 25.12343912 59 28 C58.63611114 30.70534857 58.63611114 30.70534857 58.5859375 33.640625 C58.55032715 34.60516602 58.5147168 35.56970703 58.47802734 36.56347656 C58.44402832 37.7800293 58.4100293 38.99658203 58.375 40.25 C58.189375 46.06625 58.189375 46.06625 58 52 C49.09 52 40.18 52 31 52 C30.6875 38.6875 30.6875 38.6875 30.61206055 34.4987793 C30.57894775 33.40992432 30.54583496 32.32106934 30.51171875 31.19921875 C30.48553467 30.08377686 30.45935059 28.96833496 30.43237305 27.8190918 C30.22467233 25.00727219 30.22467233 25.00727219 28.64770508 23.16723633 C26.11197496 21.37092195 24.08197073 21.12327883 21 21 C18.16140195 22.1191794 18.16140195 22.1191794 16 24 C14.96285478 27.11143567 14.79968139 29.49468096 14.68359375 32.76171875 C14.64169922 33.87998047 14.59980469 34.99824219 14.55664062 36.15039062 C14.51732422 37.31763672 14.47800781 38.48488281 14.4375 39.6875 C14.39431641 40.86634766 14.35113281 42.04519531 14.30664062 43.25976562 C14.20048906 46.17303626 14.09973371 49.0865026 14 52 C9.38 52 4.76 52 0 52 C0 34.84 0 17.68 0 0 Z " fill="#000000" transform="translate(294,338)"/>
<path d="M0 0 C1.40074516 -0.00845947 1.40074516 -0.00845947 2.82978821 -0.01708984 C3.85738754 -0.01304138 4.88498688 -0.00899292 5.94372559 -0.00482178 C7.02345139 -0.00832642 8.10317719 -0.01183105 9.21562195 -0.01544189 C12.79888259 -0.0242731 16.38194717 -0.01840509 19.96520996 -0.01165771 C22.44620807 -0.01300396 24.92720592 -0.01494416 27.40820312 -0.01745605 C33.28129025 -0.02078801 39.15430574 -0.01376952 45.02738237 -0.00315452 C49.71615991 0.00435503 54.40485351 0.00169959 59.09362793 -0.0067749 C65.54740339 -0.01834076 72.00109749 -0.02019841 78.45487976 -0.01366425 C80.92054768 -0.01232632 83.38621903 -0.01398044 85.85188293 -0.01862335 C89.29274767 -0.02368004 92.73334929 -0.01599028 96.17419434 -0.00482178 C97.71559334 -0.01089447 97.71559334 -0.01089447 99.28813171 -0.01708984 C100.22196182 -0.0114502 101.15579193 -0.00581055 102.11791992 0 C102.93203087 0.00075405 103.74614182 0.0015081 104.58492279 0.002285 C106.55895996 0.25396729 106.55895996 0.25396729 108.55895996 2.25396729 C108.35788177 8.3327158 106.05605462 12.85740115 103.18395996 18.12896729 C102.78435059 18.89982666 102.38474121 19.67068604 101.97302246 20.46490479 C98.94320103 26.12588693 98.94320103 26.12588693 95.55895996 27.25396729 C92.72238095 27.35248543 89.91123744 27.393506 87.07458496 27.38677979 C85.77276276 27.38930252 85.77276276 27.38930252 84.44464111 27.39187622 C76.42127704 27.39974764 68.39768048 27.35620071 60.37451172 27.30310059 C53.77870766 27.26077364 47.18475992 27.26325749 40.58892822 27.29763794 C36.28455924 27.31202702 31.98079522 27.2921878 27.67651367 27.26416016 C25.60367751 27.257383 23.53074939 27.26434937 21.45800781 27.28527832 C18.55265221 27.3119335 15.65163929 27.28878493 12.74645996 27.25396729 C11.45720612 27.28307693 11.45720612 27.28307693 10.14190674 27.31277466 C7.69914089 27.25329062 5.84549613 27.122581 3.55895996 26.25396729 C1.31644939 23.83296321 -0.05409321 21.22822795 -1.44104004 18.25396729 C-1.96311035 17.34388916 -2.48518066 16.43381104 -3.02307129 15.49615479 C-7.31385799 7.24149846 -7.31385799 7.24149846 -6.44104004 2.25396729 C-3.99248922 -0.19458353 -3.35994866 0.00311207 0 0 Z " fill="#000000" transform="translate(275.4410400390625,20.74603271484375)"/>
<path d="M0 0 C1.40074516 -0.00845947 1.40074516 -0.00845947 2.82978821 -0.01708984 C3.85738754 -0.01304138 4.88498688 -0.00899292 5.94372559 -0.00482178 C7.02345139 -0.00832642 8.10317719 -0.01183105 9.21562195 -0.01544189 C12.79888259 -0.0242731 16.38194717 -0.01840509 19.96520996 -0.01165771 C22.44620807 -0.01300396 24.92720592 -0.01494416 27.40820312 -0.01745605 C33.28129025 -0.02078801 39.15430574 -0.01376952 45.02738237 -0.00315452 C49.71615991 0.00435503 54.40485351 0.00169959 59.09362793 -0.0067749 C65.54740339 -0.01834076 72.00109749 -0.02019841 78.45487976 -0.01366425 C80.92054768 -0.01232632 83.38621903 -0.01398044 85.85188293 -0.01862335 C89.29274767 -0.02368004 92.73334929 -0.01599028 96.17419434 -0.00482178 C97.71559334 -0.01089447 97.71559334 -0.01089447 99.28813171 -0.01708984 C100.22196182 -0.0114502 101.15579193 -0.00581055 102.11791992 0 C102.93203087 0.00075405 103.74614182 0.0015081 104.58492279 0.002285 C106.55895996 0.25396729 106.55895996 0.25396729 108.55895996 2.25396729 C108.37857116 8.41071549 105.96061612 12.89411623 102.99645996 18.19146729 C102.57171387 18.97070557 102.14696777 19.74994385 101.70935059 20.55279541 C100.66883143 22.45846533 99.61521578 24.3569745 98.55895996 26.25396729 C87.96171324 26.40856798 77.36439731 26.55673695 66.76694965 26.69693089 C61.84494959 26.76224124 56.92299875 26.82968012 52.00109863 26.90216064 C47.24194927 26.97216321 42.48275228 27.03634311 37.72347069 27.09666252 C35.91718942 27.12054486 34.11093357 27.14644606 32.3047123 27.17450142 C22.31869937 27.32819349 12.50647423 27.28060308 2.55895996 26.25396729 C1.0453141 23.19796639 -0.45090146 20.13400481 -1.94104004 17.06646729 C-2.37029785 16.20215088 -2.79955566 15.33783447 -3.24182129 14.44732666 C-3.64787598 13.60621338 -4.05393066 12.7651001 -4.47229004 11.89849854 C-4.84934082 11.12868652 -5.2263916 10.35887451 -5.61486816 9.56573486 C-6.55319161 6.94014837 -6.73512302 5.02199444 -6.44104004 2.25396729 C-3.99248922 -0.19458353 -3.35994866 0.00311207 0 0 Z " fill="#000000" transform="translate(21.4410400390625,20.74603271484375)"/>
<path d="M0 0 C18.23646044 -0.02311804 36.47291587 -0.04097873 54.70938778 -0.05181217 C63.17629939 -0.05697532 71.64320175 -0.06401838 80.11010742 -0.07543945 C87.48717094 -0.08538572 94.86422775 -0.09185329 102.24129778 -0.09408849 C106.14982053 -0.0953957 110.05832412 -0.09848217 113.96684074 -0.10573006 C117.64146442 -0.11248937 121.31606093 -0.11461715 124.99069023 -0.11310768 C126.99079611 -0.11351638 128.99089898 -0.11891204 130.99099731 -0.12442017 C132.76003166 -0.12235817 132.76003166 -0.12235817 134.56480408 -0.12025452 C135.59629043 -0.12117631 136.62777678 -0.1220981 137.69052029 -0.12304783 C140 0 140 0 141 1 C141 5.29 141 9.58 141 14 C94.47 14 47.94 14 0 14 C0 9.38 0 4.76 0 0 Z " fill="#000000" transform="translate(129,97)"/>
<path d="M0 0 C19.8 0 39.6 0 60 0 C60 14.52 60 29.04 60 44 C55.72841553 42.29136621 53.34114079 40.93199839 49.8125 38.1875 C44.63968091 34.22994345 39.4102954 30.36862662 34.125 26.5625 C33.35510742 26.00755859 32.58521484 25.45261719 31.79199219 24.88085938 C27.63722474 21.88942681 23.47617319 18.90690407 19.30859375 15.93334961 C18.16098066 15.11451997 17.01383095 14.29504044 15.8671875 13.47485352 C13.14944962 11.530916 10.42621275 9.59558457 7.69140625 7.67578125 C6.67949219 6.95777344 5.66757813 6.23976562 4.625 5.5 C3.73039063 4.8709375 2.83578125 4.241875 1.9140625 3.59375 C1.28242188 3.0678125 0.65078125 2.541875 0 2 C0 1.34 0 0.68 0 0 Z " fill="#000000" transform="translate(210,154)"/>
<path d="M0 0 C19.47 0 38.94 0 59 0 C59.495 0.99 59.495 0.99 60 2 C58.98164063 2.71542969 57.96328125 3.43085938 56.9140625 4.16796875 C49.2661889 9.54899324 41.64028172 14.95811668 34.0625 20.4375 C33.32555908 20.97004395 32.58861816 21.50258789 31.8293457 22.05126953 C27.91605972 24.88194055 24.00966851 27.72176613 20.109375 30.5703125 C19.3062085 31.15498291 18.50304199 31.73965332 17.67553711 32.34204102 C16.14811872 33.45411017 14.62274242 34.56899197 13.09985352 35.68725586 C12.05462524 36.44727905 12.05462524 36.44727905 10.98828125 37.22265625 C10.08396362 37.88406616 10.08396362 37.88406616 9.16137695 38.55883789 C6.20626099 40.529249 3.08381952 42.23781742 0 44 C0 29.48 0 14.96 0 0 Z " fill="#000000" transform="translate(129,154)"/>
<path d="M0 0 C29.7 0 59.4 0 90 0 C90 4.62 90 9.24 90 14 C60.3 14 30.6 14 0 14 C0 9.38 0 4.76 0 0 Z " fill="#000000" transform="translate(294,313)"/>
<path d="M0 0 C29.7 0 59.4 0 90 0 C90 4.29 90 8.58 90 13 C88.17761338 14.82238662 85.65243917 14.11997696 83.2275238 14.12442017 C82.39890335 14.12082489 81.5702829 14.11722961 80.71655273 14.11352539 C79.41423203 14.11374443 79.41423203 14.11374443 78.08560181 14.1139679 C75.20157414 14.11326846 72.3176102 14.10547463 69.43359375 14.09765625 C67.43962133 14.09579218 65.44564845 14.09436823 63.45167542 14.09336853 C58.19254298 14.08954248 52.93343797 14.07971145 47.67431641 14.06866455 C42.31217825 14.0584523 36.95003569 14.05387131 31.58789062 14.04882812 C21.05858167 14.03808926 10.52929311 14.0210118 0 14 C0 9.38 0 4.76 0 0 Z " fill="#000000" transform="translate(15,313)"/>
<path d="M0 0 C1.051875 -0.02126953 1.051875 -0.02126953 2.125 -0.04296875 C4 0.1875 4 0.1875 6 2.1875 C7.12104615 5.40498286 7.1267026 8.47223718 7.12939453 11.8581543 C7.13254669 12.99580734 7.13569885 14.13346039 7.13894653 15.30558777 C7.1369223 16.52861099 7.13489807 17.75163422 7.1328125 19.01171875 C7.13376923 20.26886185 7.13472595 21.52600494 7.13571167 22.82124329 C7.13639201 25.47664847 7.13504989 28.13196151 7.13037109 30.78735352 C7.12465663 34.19725806 7.12796691 37.60708419 7.13394356 41.01698589 C7.13841456 44.26523305 7.13529018 47.51347058 7.1328125 50.76171875 C7.13483673 51.99081467 7.13686096 53.21991058 7.13894653 54.48625183 C7.13579437 55.61444839 7.13264221 56.74264496 7.12939453 57.9050293 C7.12859894 58.90334274 7.12780334 59.90165619 7.12698364 60.93022156 C7 63.1875 7 63.1875 6 64.1875 C3.83519203 64.2864294 1.66706215 64.317211 -0.5 64.3125 C-1.6859375 64.31507813 -2.871875 64.31765625 -4.09375 64.3203125 C-7 64.1875 -7 64.1875 -8 63.1875 C-8.1042234 61.39845647 -8.13854078 59.60529662 -8.14526367 57.81323242 C-8.15164352 56.66501511 -8.15802338 55.51679779 -8.16459656 54.33378601 C-8.16570938 53.08281631 -8.1668222 51.83184662 -8.16796875 50.54296875 C-8.17129715 49.26649979 -8.17462555 47.99003082 -8.17805481 46.67488098 C-8.18313023 43.96705659 -8.18589407 41.25933247 -8.18530273 38.55151367 C-8.1852013 35.08458973 -8.19883065 31.61787147 -8.21607494 28.15099621 C-8.22988508 24.84415058 -8.22928433 21.53734286 -8.23046875 18.23046875 C-8.23765427 16.98557175 -8.24483978 15.74067474 -8.25224304 14.45805359 C-8.24916641 13.30037979 -8.24608978 12.14270599 -8.24291992 10.94995117 C-8.24434494 9.93148605 -8.24576996 8.91302094 -8.24723816 7.86369324 C-7.99326826 5.11463323 -7.50011272 3.48851983 -6 1.1875 C-3.77109005 0.07304502 -2.46944894 0.02269714 0 0 Z " fill="#000000" transform="translate(149,325.8125)"/>
<path d="M0 0 C2 2 2 2 2.24050903 4.55630493 C2.23606781 5.63552216 2.23162659 6.71473938 2.22705078 7.82666016 C2.22689972 9.04777496 2.22674866 10.26888977 2.22659302 11.52700806 C2.21637903 12.86436118 2.20594702 14.20171265 2.1953125 15.5390625 C2.1915828 16.90383701 2.18873563 18.26861419 2.18673706 19.63339233 C2.17909714 23.22720723 2.15944572 26.82086073 2.1373291 30.41461182 C2.11687832 34.08107317 2.107737 37.74756057 2.09765625 41.4140625 C2.07620001 48.60945714 2.04101512 55.8046854 2 63 C-2.62 63 -7.24 63 -12 63 C-12.06780341 55.24607191 -12.12283183 47.4923061 -12.15543652 39.73816299 C-12.17108596 36.13750434 -12.19231058 32.53705921 -12.22631836 28.93652344 C-12.25893828 25.46113743 -12.27685844 21.98595667 -12.28463173 18.51042938 C-12.29286439 16.54059576 -12.31627973 14.57084459 -12.33988953 12.60113525 C-12.34011612 11.40019226 -12.34034271 10.19924927 -12.34057617 8.96191406 C-12.34723801 7.90490295 -12.35389984 6.84789185 -12.36076355 5.7588501 C-11.95024666 2.61952364 -11.15915127 1.2757288 -9 -1 C-5.52396588 -2.62214925 -3.32262427 -1.66131214 0 0 Z " fill="#010101" transform="translate(204,327)"/>
<path d="M0 0 C1.0209375 0.01546875 1.0209375 0.01546875 2.0625 0.03125 C2.743125 0.0209375 3.42375 0.010625 4.125 0 C6.93142417 0.7695034 7.58322448 2.05970259 9.0625 4.53125 C9.42326355 7.2901001 9.42326355 7.2901001 9.40307617 10.49316406 C9.40284958 11.69410706 9.40262299 12.89505005 9.40238953 14.13238525 C9.38690567 15.42416687 9.37142181 16.71594849 9.35546875 18.046875 C9.34987052 19.38636805 9.34560149 20.72586726 9.34260559 22.06536865 C9.33117454 25.58362921 9.30172294 29.10151571 9.26849365 32.61962891 C9.23775489 36.21251364 9.22409216 39.80545906 9.20898438 43.3984375 C9.17685106 50.44287559 9.12409771 57.48699896 9.0625 64.53125 C4.4425 64.53125 -0.1775 64.53125 -4.9375 64.53125 C-5.00530341 56.77732191 -5.06033183 49.0235561 -5.09293652 41.26941299 C-5.10858596 37.66875434 -5.12981058 34.06830921 -5.16381836 30.46777344 C-5.19643828 26.99238743 -5.21435844 23.51720667 -5.22213173 20.04167938 C-5.23036439 18.07184576 -5.25377973 16.10209459 -5.27738953 14.13238525 C-5.27761612 12.93144226 -5.27784271 11.73049927 -5.27807617 10.49316406 C-5.28473801 9.43615295 -5.29139984 8.37914185 -5.29826355 7.2901001 C-4.82645853 3.68208777 -3.68425303 1.01019841 0 0 Z " fill="#000000" transform="translate(247.9375,325.46875)"/>
<path d="M0 0 C3.05127046 1.1082667 4.16587359 2.42898114 6.21484375 4.91796875 C9.37536459 8.30165613 11.33026969 9.47808201 15.96484375 9.85546875 C17.23134766 9.86900391 17.23134766 9.86900391 18.5234375 9.8828125 C20.52734375 9.91796875 20.52734375 9.91796875 21.52734375 10.91796875 C21.6261394 12.72825375 21.65705889 14.54249602 21.65234375 16.35546875 C21.65621094 17.83853516 21.65621094 17.83853516 21.66015625 19.3515625 C21.52734375 21.91796875 21.52734375 21.91796875 20.52734375 23.91796875 C14.4081766 24.91928701 7.90910833 25.97977657 2.37939453 22.60839844 C-1.92160548 19.13955506 -6.86784692 14.85456403 -9.47265625 9.91796875 C-9.05463059 6.68790655 -7.96645641 4.93601376 -5.72265625 2.60546875 C-5.2328125 2.07308594 -4.74296875 1.54070312 -4.23828125 0.9921875 C-2.47265625 -0.08203125 -2.47265625 -0.08203125 0 0 Z " fill="#010101" transform="translate(191.47265625,233.08203125)"/>
<path d="M0 0 C4.62 0 9.24 0 14 0 C14.02683436 3.31255326 14.0467578 6.62489183 14.0625 9.9375 C14.07087891 10.88302734 14.07925781 11.82855469 14.08789062 12.80273438 C14.09111328 13.70185547 14.09433594 14.60097656 14.09765625 15.52734375 C14.10289307 16.35999756 14.10812988 17.19265137 14.11352539 18.05053711 C14 20 14 20 13 21 C8.66469082 21.14393457 4.33842269 21.04212061 0 21 C0 14.07 0 7.14 0 0 Z " fill="#000000" transform="translate(205,122)"/>
<path d="M0 0 C10.05859375 -0.09765625 10.05859375 -0.09765625 13 0 C14.55606751 1.55606751 14.12970769 3.05957371 14.1328125 5.21875 C14.13474609 6.49298828 14.13474609 6.49298828 14.13671875 7.79296875 C14.13285156 8.68628906 14.12898438 9.57960937 14.125 10.5 C14.12886719 11.39332031 14.13273437 12.28664062 14.13671875 13.20703125 C14.13542969 14.05652344 14.13414062 14.90601563 14.1328125 15.78125 C14.13168457 16.56564453 14.13055664 17.35003906 14.12939453 18.15820312 C14 20 14 20 13 21 C8.66469082 21.14393457 4.33842269 21.04212061 0 21 C0 14.07 0 7.14 0 0 Z " fill="#010101" transform="translate(256,122)"/>
<path d="M0 0 C3.35286458 0.03255208 6.70572917 0.06510417 10.05859375 0.09765625 C10.05859375 7.02765625 10.05859375 13.95765625 10.05859375 21.09765625 C-0 21.1953125 -0 21.1953125 -2.94140625 21.09765625 C-4.49747376 19.54158874 -4.07111394 18.03808254 -4.07421875 15.87890625 C-4.07550781 15.02941406 -4.07679688 14.17992187 -4.078125 13.3046875 C-4.07425781 12.41136719 -4.07039062 11.51804688 -4.06640625 10.59765625 C-4.07027344 9.70433594 -4.07414063 8.81101563 -4.078125 7.890625 C-4.07683594 7.04113281 -4.07554687 6.19164062 -4.07421875 5.31640625 C-4.07309082 4.53201172 -4.07196289 3.74761719 -4.07080078 2.93945312 C-3.85098982 -0.18932783 -3.18049386 0.10559409 0 0 Z " fill="#010101" transform="translate(233.94140625,121.90234375)"/>
<path d="M0 0 C10.05859375 -0.09765625 10.05859375 -0.09765625 13 0 C14.55606751 1.55606751 14.12970769 3.05957371 14.1328125 5.21875 C14.13474609 6.49298828 14.13474609 6.49298828 14.13671875 7.79296875 C14.13285156 8.68628906 14.12898437 9.57960937 14.125 10.5 C14.12886719 11.39332031 14.13273438 12.28664062 14.13671875 13.20703125 C14.13542969 14.05652344 14.13414062 14.90601563 14.1328125 15.78125 C14.13168457 16.56564453 14.13055664 17.35003906 14.12939453 18.15820312 C14 20 14 20 13 21 C8.66469082 21.14393457 4.33842269 21.04212061 0 21 C0 14.07 0 7.14 0 0 Z " fill="#000000" transform="translate(180,122)"/>
<path d="M0 0 C3.35286458 0.03255208 6.70572917 0.06510417 10.05859375 0.09765625 C10.05859375 7.02765625 10.05859375 13.95765625 10.05859375 21.09765625 C-0 21.1953125 -0 21.1953125 -2.94140625 21.09765625 C-4.49747376 19.54158874 -4.07111394 18.03808254 -4.07421875 15.87890625 C-4.07550781 15.02941406 -4.07679688 14.17992187 -4.078125 13.3046875 C-4.07425781 12.41136719 -4.07039062 11.51804688 -4.06640625 10.59765625 C-4.07027344 9.70433594 -4.07414063 8.81101563 -4.078125 7.890625 C-4.07683594 7.04113281 -4.07554687 6.19164062 -4.07421875 5.31640625 C-4.07309082 4.53201172 -4.07196289 3.74761719 -4.07080078 2.93945312 C-3.85098982 -0.18932783 -3.18049386 0.10559409 0 0 Z " fill="#000000" transform="translate(157.94140625,121.90234375)"/>
<path d="M0 0 C1.093125 0.00257812 2.18625 0.00515625 3.3125 0.0078125 C4.405625 0.00523438 5.49875 0.00265625 6.625 0 C9.3125 0.1328125 9.3125 0.1328125 10.3125 1.1328125 C10.39919432 2.6215311 10.41953494 4.1142575 10.41015625 5.60546875 C10.40693359 6.50458984 10.40371094 7.40371094 10.40039062 8.33007812 C10.39201172 9.27560547 10.38363281 10.22113281 10.375 11.1953125 C10.37048828 12.14470703 10.36597656 13.09410156 10.36132812 14.07226562 C10.34950128 16.42580781 10.33156521 18.77931782 10.3125 21.1328125 C5.6925 21.1328125 1.0725 21.1328125 -3.6875 21.1328125 C-3.71433436 17.82025924 -3.7342578 14.50792067 -3.75 11.1953125 C-3.75837891 10.24978516 -3.76675781 9.30425781 -3.77539062 8.33007812 C-3.77861328 7.43095703 -3.78183594 6.53183594 -3.78515625 5.60546875 C-3.79039307 4.77281494 -3.79562988 3.94016113 -3.80102539 3.08227539 C-3.62166714 0.00232771 -3.10823868 0.15360482 0 0 Z " fill="#010101" transform="translate(132.6875,121.8671875)"/>
</svg>
