<?xml version="1.0" encoding="UTF-8"?>
<svg version="1.1" xmlns="http://www.w3.org/2000/svg" width="529" height="472">
<path d="M0 0 C1.24245483 -0.00574036 1.24245483 -0.00574036 2.51000977 -0.01159668 C4.25831317 -0.01431425 6.00665734 -0.00696381 7.75488281 0.00976562 C10.42865777 0.03117918 13.09974596 0.00996056 15.7734375 -0.015625 C17.47396425 -0.01298169 19.17448934 -0.00785665 20.875 0 C22.07201538 -0.01214539 22.07201538 -0.01214539 23.29321289 -0.02453613 C26.84874588 0.03543163 28.99789355 0.20594385 31.89575195 2.3503418 C33.98520319 5.30601367 34.80960141 8.37228513 35.625 11.84375 C35.94855469 13.11863281 36.27210938 14.39351562 36.60546875 15.70703125 C37.39243458 19.32411831 37.96776811 22.86354546 38.4375 26.53125 C39.02917969 26.72460938 39.62085938 26.91796875 40.23046875 27.1171875 C41.02066406 27.37757812 41.81085938 27.63796875 42.625 27.90625 C43.44871094 28.17695312 44.27242187 28.44765625 45.12109375 28.7265625 C47.4375 29.53125 47.4375 29.53125 50.1875 30.78125 C53.1364519 31.76423397 54.44497783 31.41978599 57.4375 30.53125 C60.40772781 28.70557806 63.24929686 26.7860074 66.08984375 24.76953125 C70.14967248 22.0124168 73.37491808 20.48512169 78.4375 20.53125 C83.35634259 23.00629659 86.67668195 26.70599826 90.25 30.78125 C94.51570863 35.53897579 98.8942337 39.92097007 103.79296875 44.04296875 C105.4375 45.53125 105.4375 45.53125 106.4375 47.53125 C106.4921875 49.44921875 106.4921875 49.44921875 106.3125 51.71875 C106.24675781 52.82283203 106.24675781 52.82283203 106.1796875 53.94921875 C105.0963871 57.71796382 102.82834206 60.46774337 100.4375 63.53125 C101.49066406 63.27730469 102.54382813 63.02335937 103.62890625 62.76171875 C147.03747393 52.36697592 189.26607413 53.17305763 229.3046875 75.1015625 C233.78103332 77.90478234 237.2925535 80.55887403 239.4375 85.53125 C239.83102565 89.49461547 239.67636216 93.01229726 237.08984375 96.18359375 C232.80025722 99.81972976 229.98341161 100.89971269 224.4375 100.53125 C221.76293945 99.52490234 221.76293945 99.52490234 219.05078125 98.1171875 C217.53303101 97.35027588 217.53303101 97.35027588 215.98461914 96.56787109 C214.91719482 96.01953613 213.84977051 95.47120117 212.75 94.90625 C199.30716324 88.22255112 185.41025096 82.61230022 170.4375 80.53125 C169.68210937 80.42167969 168.92671875 80.31210938 168.1484375 80.19921875 C134.67807429 76.11081933 99.42466595 86.46534383 72.4375 106.53125 C69.54094618 109.03023761 66.95927358 111.66030777 64.4375 114.53125 C59.4375 119.53125 59.4375 119.53125 57.96484375 120.828125 C51.19734855 127.03566197 46.40355708 134.87999329 41.4375 142.53125 C41.04852539 143.11825684 40.65955078 143.70526367 40.25878906 144.31005859 C29.09970931 161.33736092 24.33473769 183.39947924 23.4375 203.53125 C23.39625 204.37429688 23.355 205.21734375 23.3125 206.0859375 C22.43219295 242.28856477 36.44775451 274.17272649 60.51953125 300.55078125 C63.64872773 303.78194748 66.93160535 306.71514329 70.4375 309.53125 C71.21351563 310.15644531 71.98953125 310.78164063 72.7890625 311.42578125 C99.57217856 331.93792603 134.70546925 341.47376755 168.16992188 337.703125 C184.50790307 335.47826456 199.70028033 329.73061951 214.4375 322.53125 C215.46230469 322.05042969 216.48710937 321.56960938 217.54296875 321.07421875 C225.50286193 317.08852909 231.8195375 311.38560145 238.4375 305.53125 C239.72699611 304.46611677 241.01817352 303.40300822 242.3125 302.34375 C258.27797811 288.53576893 269.89718122 267.39728809 276.4375 247.53125 C276.79932373 246.48565918 276.79932373 246.48565918 277.16845703 245.41894531 C281.25418587 233.16982805 281.93564076 221.07966214 282 208.28125 C282.0087616 207.52864899 282.01752319 206.77604797 282.02655029 206.00064087 C282.19957534 184.33146763 275.76183012 164.64298779 265.26953125 145.8359375 C259.67679099 135.74754036 259.67679099 135.74754036 260.4375 130.53125 C262.58669595 126.53988609 264.22978237 124.20818317 268.4375 122.53125 C270.62109375 122.1953125 270.62109375 122.1953125 272.875 122.15625 C273.61621094 122.12789063 274.35742188 122.09953125 275.12109375 122.0703125 C278.5346772 122.74957531 279.97110146 124.06103351 282.4375 126.53125 C284.30786479 129.35915583 285.84749625 132.3195498 287.375 135.34375 C287.81030029 136.19251709 288.24560059 137.04128418 288.6940918 137.91577148 C307.37131105 174.87799186 311.33703514 215.74059507 299.4375 255.53125 C297.18964916 262.05262401 294.37468707 268.29679796 291.4375 274.53125 C291.11378418 275.24007324 290.79006836 275.94889648 290.45654297 276.67919922 C283.90333838 290.99496948 275.35286949 303.16618364 264.4375 314.53125 C263.83164062 315.16546875 263.22578125 315.7996875 262.6015625 316.453125 C245.19549001 334.25300003 225.7029285 346.04283086 202.4375 354.53125 C201.72803223 354.79067383 201.01856445 355.05009766 200.28759766 355.31738281 C174.8971837 364.39723566 145.63396475 365.93605842 119.4375 359.53125 C118.68049805 359.34900879 117.92349609 359.16676758 117.14355469 358.97900391 C107.56725566 356.61748146 98.3819667 353.73434767 89.4375 349.53125 C88.82696777 349.24910645 88.21643555 348.96696289 87.58740234 348.67626953 C73.52760727 342.13304389 61.80993994 334.15988147 50.4375 323.53125 C49.06723785 322.33828609 47.69248865 321.15044902 46.3125 319.96875 C39.19202866 313.7263017 33.18660403 307.30382827 27.9375 299.40625 C27.37925537 298.57585205 26.82101074 297.7454541 26.24584961 296.88989258 C16.80833785 282.71382406 8.79493508 268.1200818 4.4375 251.53125 C2.7875 251.86125 1.1375 252.19125 -0.5625 252.53125 C-1.52674128 256.38821514 -1.57431965 258.79644741 -0.25 262.46875 C0.48451781 265.04695681 0.68858333 266.04198486 -0.55078125 268.45703125 C-4.12573533 272.77099393 -8.43496837 276.90574367 -14.0625 278.03125 C-16.5625 277.53125 -16.5625 277.53125 -19.5625 275.46875 C-22.31960597 273.28177919 -22.31960597 273.28177919 -25.07421875 273.625 C-28.30447615 274.80148307 -28.87621041 276.05334825 -30.375 279.09375 C-31.00341797 280.33318359 -31.00341797 280.33318359 -31.64453125 281.59765625 C-31.94746094 282.23574219 -32.25039062 282.87382812 -32.5625 283.53125 C-45.88961553 283.965044 -45.88961553 283.965044 -50.5625 281.53125 C-51.65201759 279.28303909 -52.2982582 277.15549839 -52.859375 274.72265625 C-53.6740086 272.18371485 -54.36085514 271.04138516 -56.5625 269.53125 C-58.67818193 269.64453631 -58.67818193 269.64453631 -60.875 270.40625 C-67.71714375 272.11954932 -67.71714375 272.11954932 -71.5625 270.53125 C-75.54306428 266.73676901 -78.2744476 263.25956437 -79.1875 257.78125 C-78.5625 254.53125 -78.5625 254.53125 -77 251.96875 C-75.35289448 249.57795094 -75.35289448 249.57795094 -75.3125 246.59375 C-77.25492702 241.83480379 -81.21499292 240.00801161 -85.5625 237.53125 C-85.4752395 235.28053094 -85.36705885 233.03061612 -85.25 230.78125 C-85.19199219 229.52828125 -85.13398437 228.2753125 -85.07421875 226.984375 C-84.5467961 223.42527866 -84.1453184 221.97570312 -81.5625 219.53125 C-79.30078125 218.484375 -79.30078125 218.484375 -76.875 217.78125 C-76.06675781 217.53890625 -75.25851563 217.2965625 -74.42578125 217.046875 C-73.81089844 216.87671875 -73.19601563 216.7065625 -72.5625 216.53125 C-71.15033733 212.15354572 -72.03420273 208.98585073 -73.28515625 204.71484375 C-73.62657726 202.0267544 -72.95847882 200.8029351 -71.5625 198.53125 C-72.23345703 197.87769531 -72.23345703 197.87769531 -72.91796875 197.2109375 C-74.82005206 195.33724349 -76.69204971 193.43648139 -78.5625 191.53125 C-79.08328125 191.02980469 -79.6040625 190.52835938 -80.140625 190.01171875 C-82.76346501 187.27582529 -83.54987117 185.64551659 -83.96875 181.85546875 C-83.83590146 176.87393356 -81.71765891 173.4200621 -79.125 169.28125 C-78.28888272 167.90351311 -77.45670321 166.52337705 -76.62890625 165.140625 C-76.0711853 164.2429541 -76.0711853 164.2429541 -75.50219727 163.32714844 C-73.88491468 160.23628569 -73.47414791 158.1170801 -73.99609375 154.65625 C-75.14967019 151.06535059 -76.22721319 148.51522759 -78.5625 145.53125 C-83.77590159 143.27361065 -88.98287478 142.4676906 -94.5625 141.53125 C-101.96191691 139.43212464 -101.96191691 139.43212464 -104.5625 135.53125 C-104.79478154 132.68871616 -104.91452336 129.94657759 -104.93359375 127.1015625 C-104.94262222 126.274216 -104.9516507 125.44686951 -104.96095276 124.5944519 C-104.97545615 122.84441751 -104.98434222 121.09432888 -104.98803711 119.34423828 C-104.99992738 116.6725683 -105.0491028 114.00321327 -105.09960938 111.33203125 C-105.10907468 109.63021959 -105.1163092 107.92839376 -105.12109375 106.2265625 C-105.15039223 105.03258347 -105.15039223 105.03258347 -105.18028259 103.81448364 C-105.14641332 99.63091235 -104.92094313 97.99616709 -102.28173828 94.57299805 C-99.85691913 92.75231546 -98.40401352 91.79041041 -95.49609375 91.16796875 C-94.76326172 91.00361328 -94.03042969 90.83925781 -93.27539062 90.66992188 C-92.52451172 90.52103516 -91.77363281 90.37214844 -91 90.21875 C-90.24525391 90.05052734 -89.49050781 89.88230469 -88.71289062 89.70898438 C-85.23709176 88.9587018 -82.13120058 88.53125 -78.5625 88.53125 C-78.36914062 87.93957031 -78.17578125 87.34789062 -77.9765625 86.73828125 C-77.71617188 85.94808594 -77.45578125 85.15789062 -77.1875 84.34375 C-76.91679688 83.52132812 -76.64609375 82.69890625 -76.3671875 81.8515625 C-75.5625 79.53125 -75.5625 79.53125 -74.3125 76.71875 C-73.41443079 74.09938146 -73.71585742 73.12743713 -74.5625 70.53125 C-75.64233132 68.7777999 -76.72652296 67.02649541 -77.85351562 65.30297852 C-85.10791163 54.12468974 -85.10791163 54.12468974 -84.26318359 48.65600586 C-83.42805621 46.1235621 -82.3036526 44.76927291 -80.51171875 42.80078125 C-79.56498291 41.75893677 -79.56498291 41.75893677 -78.59912109 40.69604492 C-75.24319223 37.1289122 -71.83648233 33.62098255 -68.375 30.15625 C-67.67697266 29.44597656 -66.97894531 28.73570313 -66.25976562 28.00390625 C-65.58236328 27.32457031 -64.90496094 26.64523438 -64.20703125 25.9453125 C-63.60221924 25.3363916 -62.99740723 24.7274707 -62.37426758 24.10009766 C-59.32096294 21.45617695 -57.38831292 20.51733739 -53.31640625 20.5859375 C-47.88261149 21.95428124 -43.96662677 24.91537624 -39.43554688 28.11328125 C-35.27634284 30.93205875 -35.27634284 30.93205875 -30.36328125 31.46484375 C-27.75075106 30.59400035 -25.29343657 29.66216604 -22.8125 28.46875 C-18.75822954 26.53125 -18.75822954 26.53125 -16.5625 26.53125 C-16.459375 25.314375 -16.35625 24.0975 -16.25 22.84375 C-15.78268926 18.75478103 -15.08687843 14.74850156 -14.25 10.71875 C-14.02699219 9.63980469 -13.80398437 8.56085938 -13.57421875 7.44921875 C-11.13218289 0.40597247 -6.8595095 -0.06959926 0 0 Z M3.4375 17.53125 C1.44075021 23.09121129 1.44075021 23.09121129 0.71875 27.22265625 C-1.31873288 37.31838393 -1.31873288 37.31838393 -4.44921875 40.37109375 C-7.09854199 41.70700037 -9.74308776 42.60181141 -12.5625 43.53125 C-13.96395633 44.1289099 -15.35943161 44.74070856 -16.75 45.36328125 C-18.24949691 46.02457944 -19.74949951 46.68473213 -21.25 47.34375 C-21.96244873 47.65892578 -22.67489746 47.97410156 -23.40893555 48.29882812 C-27.93598698 50.18680778 -31.58543228 51.23416161 -36.5625 50.53125 C-39.15713451 49.2690813 -41.42796059 47.67292941 -43.75 45.96875 C-47.8313504 42.75062009 -47.8313504 42.75062009 -52.69140625 41.46875 C-55.3409687 42.97330321 -57.20832561 44.89674439 -59.3125 47.09375 C-60.11171875 47.92003906 -60.9109375 48.74632812 -61.734375 49.59765625 C-62.33765625 50.23574219 -62.9409375 50.87382812 -63.5625 51.53125 C-61.95790057 57.05009956 -59.33210092 61.01346259 -56.0234375 65.65234375 C-54.10184089 69.43901943 -54.00833621 71.28830131 -54.5625 75.53125 C-55.93295197 79.71936011 -57.62797341 83.73806189 -59.375 87.78125 C-59.82681641 88.86921875 -60.27863281 89.9571875 -60.74414062 91.078125 C-64.6527527 100.2990259 -64.6527527 100.2990259 -67.5625 102.53125 C-69.73901367 103.33081055 -69.73901367 103.33081055 -72.23046875 103.91796875 C-73.12314453 104.13388672 -74.01582031 104.34980469 -74.93554688 104.57226562 C-75.86431641 104.78560547 -76.79308594 104.99894531 -77.75 105.21875 C-79.16055664 105.55616211 -79.16055664 105.55616211 -80.59960938 105.90039062 C-82.91830993 106.45358314 -85.24012701 106.99368333 -87.5625 107.53125 C-87.5625 113.14125 -87.5625 118.75125 -87.5625 124.53125 C-86.11617187 124.75296875 -84.66984375 124.9746875 -83.1796875 125.203125 C-68.27390844 127.84902837 -68.27390844 127.84902837 -64.04296875 132.0078125 C-62.5104471 135.14040496 -61.52581353 138.18043 -60.5625 141.53125 C-60.03061874 142.82951926 -59.47893237 144.11980936 -58.91015625 145.40234375 C-53.75999676 157.16050062 -53.75999676 157.16050062 -54.5625 163.53125 C-55.80092203 166.29734243 -57.38279934 168.76422108 -59.0625 171.28125 C-62.42674989 176.00923796 -62.42674989 176.00923796 -63.5625 181.53125 C-61.9009973 183.33620453 -61.9009973 183.33620453 -59.75 185.03125 C-57.24025953 187.11584317 -54.85207997 189.20786196 -52.5625 191.53125 C-51.48871094 190.809375 -50.41492187 190.0875 -49.30859375 189.34375 C-47.87294123 188.40541502 -46.43671249 187.46796123 -45 186.53125 C-43.94329102 185.81582031 -43.94329102 185.81582031 -42.86523438 185.0859375 C-42.16591797 184.63476562 -41.46660156 184.18359375 -40.74609375 183.71875 C-40.11243896 183.29980469 -39.47878418 182.88085938 -38.82592773 182.44921875 C-33.37861934 180.23997708 -28.50002284 181.60496582 -23.296875 183.796875 C-22.15992187 184.27511719 -21.02296875 184.75335938 -19.8515625 185.24609375 C-18.68367188 185.75269531 -17.51578125 186.25929688 -16.3125 186.78125 C-15.12914063 187.27238281 -13.94578125 187.76351562 -12.7265625 188.26953125 C-3.17952993 192.34713628 -3.17952993 192.34713628 -0.5625 196.53125 C0.27552913 192.4280276 1.10711878 188.32352638 1.9375 184.21875 C2.17597656 183.05150391 2.41445312 181.88425781 2.66015625 180.68164062 C2.88574219 179.56337891 3.11132812 178.44511719 3.34375 177.29296875 C3.55322266 176.26131592 3.76269531 175.22966309 3.97851562 174.16674805 C4.52328613 171.48452534 4.52328613 171.48452534 4.4375 168.53125 C2.86162109 168.09425781 2.86162109 168.09425781 1.25390625 167.6484375 C-6.87935498 165.31024607 -13.94169204 162.99683256 -20.5625 157.53125 C-21.40425781 156.8609375 -22.24601562 156.190625 -23.11328125 155.5 C-33.08934611 147.10532616 -39.45424136 136.45687271 -40.79003906 123.28808594 C-41.45148458 113.10848096 -40.91105176 103.91496695 -36.5625 94.53125 C-36.0365625 93.355625 -36.0365625 93.355625 -35.5 92.15625 C-28.83405404 78.82435808 -17.93239486 70.94578799 -4.08203125 66.27734375 C11.40878823 61.69013984 26.43279407 65.44223425 40.4375 72.53125 C42.65186634 74.07569029 44.47088543 75.6738918 46.4375 77.53125 C47.0975 77.53125 47.7575 77.53125 48.4375 77.53125 C48.70304688 78.11390625 48.96859375 78.6965625 49.2421875 79.296875 C50.47052996 81.59299228 51.84064939 83.33481018 53.5625 85.28125 C54.10132813 85.89484375 54.64015625 86.5084375 55.1953125 87.140625 C55.60523438 87.59953125 56.01515625 88.0584375 56.4375 88.53125 C59.94671126 86.9421732 62.85710155 84.8330862 65.9375 82.53125 C71.09631397 78.67631209 71.09631397 78.67631209 73.734375 77.5546875 C75.63936371 76.67547762 75.63936371 76.67547762 75.984375 74.5703125 C76.05140625 73.77367187 76.1184375 72.97703125 76.1875 72.15625 C77.11838212 66.05675574 80.19896385 62.04930675 83.85546875 57.1953125 C85.62988734 54.74784701 85.62988734 54.74784701 85.37890625 52.44140625 C84.22995223 50.1101261 82.88681707 48.3127413 81.1875 46.34375 C80.60484375 45.64894531 80.0221875 44.95414063 79.421875 44.23828125 C76.92849216 42.09338302 75.74435656 41.51207982 72.4375 41.53125 C69.35881739 43.27438117 66.62110606 45.18584684 63.78515625 47.28320312 C59.48896723 50.29053544 56.82842342 51.32930211 51.4375 50.53125 C29.76259508 44.4245465 29.76259508 44.4245465 23.87646484 37.76513672 C21.80656806 33.8773581 21.58248359 29.85486763 21.4375 25.53125 C21.06395621 23.89579864 20.65513837 22.26732122 20.1875 20.65625 C19.94 19.625 19.6925 18.59375 19.4375 17.53125 C14.1575 17.53125 8.8775 17.53125 3.4375 17.53125 Z M-18.87109375 95.9921875 C-23.02028877 102.22077124 -24.14682466 108.38645216 -24.125 115.78125 C-24.12330811 116.61027832 -24.12161621 117.43930664 -24.11987305 118.29345703 C-23.86232817 127.15334524 -20.80468481 133.60649997 -15.1875 140.40625 C-13.888125 141.458125 -13.888125 141.458125 -12.5625 142.53125 C-11.97726563 143.03140625 -11.39203125 143.5315625 -10.7890625 144.046875 C-4.2273561 149.38960828 1.95883091 151.74989763 10.4375 151.53125 C10.94796875 150.35691406 11.4584375 149.18257813 11.984375 147.97265625 C17.27545211 136.13520204 23.58659383 125.83022698 31.4375 115.53125 C32.15679687 114.57992187 32.87609375 113.62859375 33.6171875 112.6484375 C35.20078038 110.5890871 36.80643469 108.55304405 38.4375 106.53125 C39.241875 105.520625 40.04625 104.51 40.875 103.46875 C41.390625 102.829375 41.90625 102.19 42.4375 101.53125 C39.20807402 93.66829978 34.45712953 88.11553998 26.8046875 84.17578125 C9.30644761 76.94143431 -6.45209259 82.14720499 -18.87109375 95.9921875 Z M-52.30859375 222.48046875 C-55.90965202 228.16259186 -56.77829693 233.93676748 -55.5625 240.53125 C-53.01004839 246.76131556 -48.88207351 250.9469081 -42.8125 253.84375 C-37.35442448 254.9983429 -32.62932903 254.22019301 -27.375 252.46875 C-22.73010538 249.2689337 -19.34914057 244.8911717 -17.5625 239.53125 C-16.77904315 233.01956762 -17.74353862 227.91304789 -21.5625 222.53125 C-25.80915034 217.94719456 -30.09795301 215.82365388 -36.25 215.09375 C-42.44341799 215.30488925 -48.16460021 217.8543999 -52.30859375 222.48046875 Z " fill="#0B0B0B" transform="translate(106.5625,97.46875)"/>
<path d="M0 0 C0.74378906 0.12246094 1.48757813 0.24492188 2.25390625 0.37109375 C5.63866808 2.21787793 6.99144555 5.11714981 8.4375 8.5625 C9.44084582 12.5576004 10.0305526 16.59001207 10.62109375 20.6640625 C10.99514871 23.03390059 11.36950677 25.40369085 11.74414062 27.7734375 C12.31441054 31.48991386 12.87796072 35.20727088 13.43481445 38.92578125 C13.9796202 42.52896617 14.54910524 46.12760824 15.12109375 49.7265625 C15.3588578 51.39387924 15.3588578 51.39387924 15.60142517 53.09487915 C16.31871525 57.55651217 16.9788055 60.8435521 19.42675781 64.68041992 C23.76752026 67.39392444 27.89900006 67.88907956 32.92578125 68.51171875 C34.45153023 68.72705009 34.45153023 68.72705009 36.00810242 68.94673157 C39.25303709 69.40093133 42.50093735 69.82643955 45.75 70.25 C48.98731781 70.69001676 52.22374247 71.13594717 55.45976257 71.58540344 C57.47008153 71.86266794 59.48129938 72.13351654 61.4934845 72.39689636 C77.22154269 74.504602 77.22154269 74.504602 82.4375 79.5625 C84.23375913 83.15501826 84.11922358 86.65677085 83.4375 90.5625 C82.2124176 92.43138123 82.2124176 92.43138123 80.53735352 94.23217773 C79.89879425 94.92262177 79.26023499 95.6130658 78.60232544 96.32443237 C74.55976505 100.50376405 70.47021398 104.63005506 66.33984375 108.72265625 C65.37743472 109.68064593 64.41532821 110.6389396 63.45350647 111.59751892 C60.43017432 114.60953765 57.40289761 117.61757174 54.375 120.625 C50.85751739 124.11873377 47.34175247 127.6141621 43.8302021 131.11385918 C42.43762174 132.50004037 41.04196212 133.88312593 39.64622498 135.26612854 C35.01850203 139.87603239 30.62728094 144.55215395 26.4375 149.5625 C24.517658 151.40204442 22.53530594 153.08512751 20.4921875 154.78515625 C18.40228439 156.52985596 18.40228439 156.52985596 16.5703125 158.55859375 C14.03719643 161.17054123 11.87079961 163.29029273 8.21484375 163.98461914 C-2.9174426 163.93319738 -13.85454307 161.84496243 -24.8125 160.0625 C-27.93006181 159.55884186 -31.04798015 159.05802189 -34.16717529 158.5645752 C-36.09594197 158.25916833 -38.0237953 157.94791381 -39.95050049 157.62976074 C-40.83211853 157.48961548 -41.71373657 157.34947021 -42.62207031 157.20507812 C-43.38529602 157.08072388 -44.14852173 156.95636963 -44.93487549 156.82824707 C-45.80199158 156.74055054 -46.66910767 156.652854 -47.5625 156.5625 C-48.79526672 156.37884888 -50.02803345 156.19519775 -51.29815674 156.00598145 C-56.32285728 156.07787034 -58.8303213 158.88418789 -62.26937866 162.27401733 C-63.08218292 163.1155838 -63.89498718 163.95715027 -64.73242188 164.82421875 C-65.61141144 165.7020401 -66.490401 166.57986145 -67.39602661 167.48428345 C-69.79477827 169.88764511 -72.17443074 172.3073345 -74.54726982 174.73611832 C-77.03392453 177.27287795 -79.54334521 179.78691095 -82.05041504 182.3034668 C-86.79086312 187.06875234 -91.51055488 191.85405572 -96.22308588 196.64693356 C-101.59060436 202.10395756 -106.98093284 207.53820734 -112.3732748 212.97068596 C-123.46188251 224.14285195 -134.52157155 235.34320034 -145.5625 246.5625 C-144.94109131 246.68222168 -144.31968262 246.80194336 -143.67944336 246.92529297 C-142.86612549 247.09174316 -142.05280762 247.25819336 -141.21484375 247.4296875 C-140.40781006 247.59065918 -139.60077637 247.75163086 -138.76928711 247.91748047 C-136.5625 248.5625 -136.5625 248.5625 -134.125 250.6875 C-129.39339194 259.39365883 -130.08318871 268.30800252 -132.31640625 277.75 C-134.37512021 284.5032709 -137.32816745 289.94386642 -141.5625 295.5625 C-142.14 296.42875 -142.7175 297.295 -143.3125 298.1875 C-151.97162904 307.32769176 -164.31706094 313.527913 -176.90893555 313.90576172 C-189.15319772 314.06334553 -201.0805351 312.54662199 -210.80078125 304.28125 C-221.45622267 293.88569739 -229.78558059 282.29157795 -230.08105469 266.96313477 C-230.07493164 266.08842529 -230.06880859 265.21371582 -230.0625 264.3125 C-230.05895508 263.395896 -230.05541016 262.47929199 -230.05175781 261.53491211 C-229.67778437 246.14373696 -221.90065749 234.49582646 -211.08447266 223.91455078 C-201.95629001 215.80549151 -188.36942953 213.08913411 -176.5 213.625 C-171.59470501 213.97758741 -169.16235738 215.20475692 -165.5625 218.5625 C-163.46588638 221.70742043 -163.14582772 224.87144357 -162.5625 228.5625 C-161.67111328 227.66325806 -161.67111328 227.66325806 -160.76171875 226.74584961 C-158.51983893 224.48675473 -156.27558469 222.23005127 -154.02978516 219.97485352 C-153.06498541 219.00507727 -152.10109105 218.0343993 -151.13818359 217.06274414 C-142.11285073 207.95758263 -142.11285073 207.95758263 -137.3125 203.87890625 C-134.77317395 201.71241852 -132.55239104 199.48504896 -130.40014648 196.93554688 C-126.27848681 192.16913871 -121.86981432 187.72590794 -117.41015625 183.27734375 C-116.55119247 182.41742325 -115.6922287 181.55750275 -114.80723572 180.67152405 C-113.00072985 178.86434139 -111.19297538 177.05840608 -109.3840332 175.25366211 C-106.6331319 172.50811607 -103.88760779 169.75727454 -101.14257812 167.00585938 C-99.37792468 165.2418668 -97.61296103 163.4781845 -95.84765625 161.71484375 C-95.03595474 160.90111801 -94.22425323 160.08739227 -93.38795471 159.24900818 C-88.02102894 153.90383744 -82.54364978 148.73256627 -76.61413574 144.01107788 C-74.53391672 142.29219881 -73.58420905 141.07768069 -72.5625 138.5625 C-72.4921318 133.084059 -73.49385944 127.85859843 -74.5 122.5 C-74.76042445 120.97083531 -75.01715908 119.44103781 -75.27026367 117.91064453 C-75.77640861 114.86881326 -76.29785267 111.83031501 -76.83300781 108.79345703 C-77.81137609 103.19277853 -78.61327471 97.57128974 -79.375 91.9375 C-79.4980249 91.08792725 -79.6210498 90.23835449 -79.74780273 89.36303711 C-81.67104742 75.54068179 -81.67104742 75.54068179 -77.5625 69.5625 C-76.18612602 68.02414681 -74.75737345 66.53168807 -73.29052734 65.0793457 C-72.43308929 64.22528641 -71.57565125 63.37122711 -70.69223022 62.49128723 C-69.77027863 61.58279526 -68.84832703 60.67430328 -67.8984375 59.73828125 C-66.94054051 58.78666086 -65.98316097 57.83451935 -65.02627563 56.88188171 C-62.51562681 54.38448856 -59.99945853 51.89273856 -57.48162842 49.40258789 C-53.44361355 45.40782777 -49.41242581 41.40620561 -45.38438797 37.40138817 C-43.97692585 36.00415342 -42.56592006 34.61049121 -41.15487671 33.21687317 C-39.87817612 31.94996895 -39.87817612 31.94996895 -38.57568359 30.6574707 C-37.82306244 29.91310257 -37.07044128 29.16873444 -36.29501343 28.40180969 C-34.49530604 26.66789032 -34.49530604 26.66789032 -33.5625 24.5625 C-32.9025 24.5625 -32.2425 24.5625 -31.5625 24.5625 C-31.5625 23.9025 -31.5625 23.2425 -31.5625 22.5625 C-30.3046875 21.328125 -30.3046875 21.328125 -28.4375 19.8125 C-23.49172851 15.6453115 -19.03376608 11.03935948 -14.57568359 6.36230469 C-10.18703696 1.86182192 -6.62215094 -1.30139662 0 0 Z M-14.91796875 39.6875 C-15.86781837 40.64004614 -16.8114737 41.59879526 -17.75 42.5625 C-18.24467773 43.06362305 -18.73935547 43.56474609 -19.24902344 44.08105469 C-22.61873533 47.52110629 -25.82241058 51.07465224 -28.95703125 54.73046875 C-32.83211573 59.15240213 -37.05276006 63.16078114 -41.5 67 C-46.61075352 71.41337975 -51.80266014 75.92274021 -55.5625 81.5625 C-55.80799901 89.60551529 -54.32620865 97.81157759 -53.125 105.75 C-53.00294189 106.57564453 -52.88088379 107.40128906 -52.75512695 108.25195312 C-52.56889771 109.41694336 -52.56889771 109.41694336 -52.37890625 110.60546875 C-52.21563843 111.64223755 -52.21563843 111.64223755 -52.04907227 112.69995117 C-51.58858316 114.87695574 -51.58858316 114.87695574 -49.5625 117.5625 C-48.91643799 116.77008911 -48.91643799 116.77008911 -48.25732422 115.96166992 C-43.84103391 110.79791686 -39.19529025 106.28967352 -34.04371643 101.87174988 C-14.8117386 87.0654656 -14.8117386 87.0654656 -3.37158203 66.90722656 C-2.76543885 57.6924247 -5.92046581 48.8890375 -9.5625 40.5625 C-10.0575 39.0775 -10.0575 39.0775 -10.5625 37.5625 C-12.84372718 37.33921712 -12.84372718 37.33921712 -14.91796875 39.6875 Z M-10.72741699 109.1585083 C-13.27334628 111.92416764 -15.88707383 114.62416761 -18.49414062 117.33203125 C-27.77127423 125.45152438 -27.77127423 125.45152438 -33.5625 134.5625 C-28.75463769 135.64871366 -23.93879753 136.66478643 -19.10327148 137.62036133 C-17.46330609 137.95429971 -15.82696471 138.30660855 -14.19506836 138.67797852 C-4.68584287 141.15443847 -4.68584287 141.15443847 4.39892578 138.88232422 C6.71018592 136.57106408 8.53636383 134.21563322 10.4375 131.5625 C12.07492021 129.86709132 13.74369772 128.20158187 15.4375 126.5625 C16.32155518 125.68891846 17.20561035 124.81533691 18.11645508 123.9152832 C19.05384521 122.99062256 19.99123535 122.06596191 20.95703125 121.11328125 C22.51923887 119.56579271 24.08050669 118.01736296 25.64135742 116.46850586 C26.7209909 115.39903132 27.80239711 114.33134361 28.88549805 113.26538086 C30.45568611 111.71932406 32.01943689 110.16700772 33.58203125 108.61328125 C34.97965698 107.23136597 34.97965698 107.23136597 36.40551758 105.8215332 C38.66041869 103.82108118 38.66041869 103.82108118 38.4375 101.5625 C39.015 101.335625 39.5925 101.10875 40.1875 100.875 C42.9998279 99.23447539 44.46720461 97.12471186 46.4375 94.5625 C45.50292969 94.38074219 44.56835938 94.19898438 43.60546875 94.01171875 C42.6658857 93.82793671 42.6658857 93.82793671 41.70732117 93.64044189 C40.31762879 93.37987012 38.92450353 93.13699219 37.52864075 92.9118042 C33.56456127 92.25519954 29.95512191 91.44702255 26.21679688 89.95922852 C9.26370644 84.02896929 -0.2996202 97.72158352 -10.72741699 109.1585083 Z M-200.02734375 245.73046875 C-204.47779105 251.04156235 -207.43371554 257.60813894 -207.5625 264.5625 C-206.15830124 273.26853229 -202.441365 280.89606538 -195.359375 286.34375 C-188.42717873 291.04558747 -181.84022627 291.6160288 -173.5625 290.5625 C-166.1355672 288.07949869 -161.10354886 283.05089471 -157.30859375 276.34765625 C-154.11666778 269.48557151 -154.14155847 263.02251938 -154.5625 255.5625 C-158.91460528 259.20405748 -162.99139352 262.9191318 -166.88671875 267.046875 C-170.61089423 270.41512695 -173.80660685 270.90453354 -178.66796875 270.7421875 C-181.1733527 270.50456346 -182.59240759 270.16776048 -184.5625 268.5625 C-187.26816456 264.64395133 -188.16562765 261.39174887 -187.32421875 256.6328125 C-185.79457982 252.47533233 -182.66429415 249.62301552 -179.5625 246.5625 C-178.82257813 245.82128906 -178.08265625 245.08007812 -177.3203125 244.31640625 C-175.91211564 242.91071508 -174.49486814 241.51399928 -173.06640625 240.12890625 C-171.44707179 238.80418953 -171.44707179 238.80418953 -171.5625 237.5625 C-182.51085104 236.94472471 -191.73679816 237.98870632 -200.02734375 245.73046875 Z " fill="#090909" transform="translate(439.5625,42.4375)"/>
<path d="M0 0 C2.15822842 1.94240558 2.89225335 3.20387196 3.28125 6.078125 C3.47123843 10.85950061 3.13327861 14.17043725 0 18 C-4.39006431 20.92670954 -7.83888898 20.75653553 -13 20 C-16.4471369 18.95748641 -19.77096773 17.61026732 -23.1184082 16.28857422 C-41.49656554 9.03409528 -61.8167617 10.57691423 -79.875 18.3125 C-96.38127954 26.54078091 -109.03474623 36.90246945 -118 53 C-118.57492188 53.98871094 -119.14984375 54.97742188 -119.7421875 55.99609375 C-129.60278088 74.07384829 -131.20002335 96.45612553 -125.4609375 116.15625 C-120.38112045 130.37089044 -112.04101096 144.75422373 -100 154 C-98.9790625 154.80566406 -97.958125 155.61132812 -96.90625 156.44140625 C-79.41351847 169.85384125 -59.16743806 174.88896909 -37.16796875 172.6015625 C-21.36833419 170.17569638 -6.57488907 164.19969007 5 153 C5.84691406 152.24074219 6.69382812 151.48148438 7.56640625 150.69921875 C23.35516657 135.97107744 31.60498086 115.89992039 32.40380859 94.39697266 C32.57662858 82.74289432 30.17012654 71.8913464 26.25 60.9375 C24.45304244 55.83295573 23.98866743 51.27549828 26.25 46.1875 C28.1287297 43.83908787 29.31503308 42.37876679 32 41 C36.06620919 40.61274198 38.83301712 40.62005209 42.6875 41.875 C51.40067258 49.88169913 55.34784925 67.28497386 55.9453125 78.8125 C55.96335937 79.864375 55.98140625 80.91625 56 82 C56.01901367 82.74765625 56.03802734 83.4953125 56.05761719 84.265625 C56.75112194 113.91579559 50.65603995 139.02540785 31 162 C30.56623047 162.50917969 30.13246094 163.01835937 29.68554688 163.54296875 C10.70249938 185.2937949 -17.43153245 196.20572158 -45.671875 198.1875 C-74.05222802 198.94938867 -100.32065307 186.89229875 -121.12890625 168.2421875 C-141.88317051 148.44048336 -152.44456708 120.37966581 -153.25 92 C-153.19744528 90.33207907 -153.11067703 88.66507442 -153 87 C-152.93167969 85.86949219 -152.86335937 84.73898437 -152.79296875 83.57421875 C-150.25238537 55.79531257 -136.38022418 29.00157109 -115 11 C-84.88491134 -12.66373624 -33.4549014 -23.86896976 0 0 Z " fill="#0A0A0A" transform="translate(307,214)"/>
<path d="M0 0 C0.66 0.66 1.32 1.32 2 2 C1.26394531 1.94199219 0.52789062 1.88398438 -0.23046875 1.82421875 C-4.77395914 1.61414984 -8.03809338 1.49980856 -12.125 3.625 C-15.14796449 9.06633608 -14.90876216 14.87047602 -15 21 C-15.33 21 -15.66 21 -16 21 C-16.24803781 18.20882755 -16.47414334 15.41884926 -16.6875 12.625 C-16.76033203 11.8309375 -16.83316406 11.036875 -16.90820312 10.21875 C-17.07421875 7.9140625 -17.07421875 7.9140625 -17 4 C-16.01 3.34 -15.02 2.68 -14 2 C-13.29875 1.443125 -12.5975 0.88625 -11.875 0.3125 C-7.84002184 -1.52955525 -4.25251815 -1.11116879 0 0 Z " fill="#7E7E7E" transform="translate(301,290)"/>
<path d="M0 0 C0.66 0.33 1.32 0.66 2 1 C1.44600499 4.67724226 0.16350607 6.06161222 -2.6875 8.375 C-5.39460935 10.62525427 -7.94030473 12.89459605 -10.375 15.4375 C-13 18 -13 18 -15 18 C-13.35009794 13.70402861 -10.18257193 10.99482354 -6.9375 7.875 C-2.9955106 4.30446634 -2.9955106 4.30446634 0 0 Z " fill="#797979" transform="translate(268,279)"/>
<path d="M0 0 C0.66 0.66 1.32 1.32 2 2 C-0.55000905 4.63738416 -3.11703788 7.25755816 -5.6875 9.875 C-6.7693457 10.99455078 -6.7693457 10.99455078 -7.87304688 12.13671875 C-8.57880859 12.85214844 -9.28457031 13.56757813 -10.01171875 14.3046875 C-10.65584717 14.96452637 -11.29997559 15.62436523 -11.96362305 16.30419922 C-14.19953832 18.16616631 -16.26046651 19.06394072 -19 20 C-14.58030603 14.50524534 -9.68377106 9.89118656 -4.390625 5.234375 C-1.86349503 3.04344845 -1.86349503 3.04344845 0 0 Z " fill="#5A5A5A" transform="translate(363,185)"/>
<path d="M0 0 C0.66 0.33 1.32 0.66 2 1 C-5.19191919 9.32323232 -5.19191919 9.32323232 -9 13 C-9.7425 13.7425 -10.485 14.485 -11.25 15.25 C-11.8275 15.8275 -12.405 16.405 -13 17 C-13.66 16.67 -14.32 16.34 -15 16 C-10.13036358 10.52436438 -5.24944351 5.1148424 0 0 Z " fill="#4D4D4D" transform="translate(192,225)"/>
<path d="M0 0 C0.66 0.66 1.32 1.32 2 2 C-1 5 -4 8 -7 11 C-7.53625 11.5465625 -8.0725 12.093125 -8.625 12.65625 C-10.61820948 14.60415926 -12.80840174 16.28226083 -15 18 C-15.66 17.67 -16.32 17.34 -17 17 C-12.36411402 12.25314867 -7.64472092 7.7186497 -2.56640625 3.4453125 C-0.88496233 2.06499621 -0.88496233 2.06499621 0 0 Z " fill="#373737" transform="translate(307,241)"/>
<path d="M0 0 C6.22987798 0.50512524 11.45474233 3.32604123 17 6 C15.02 6.99 15.02 6.99 13 8 C12.67 7.34 12.34 6.68 12 6 C11.278125 5.855625 10.55625 5.71125 9.8125 5.5625 C6.48766884 4.89753377 3.94033041 3.67064228 1 2 C0.67 1.34 0.34 0.68 0 0 Z " fill="#4F4F4F" transform="translate(74,278)"/>
<path d="M0 0 C0.66 0.33 1.32 0.66 2 1 C-1.96 4.96 -5.92 8.92 -10 13 C-10.99 12.67 -11.98 12.34 -13 12 C-11.21135158 10.18443212 -9.41928379 8.37248378 -7.625 6.5625 C-7.11710937 6.04623047 -6.60921875 5.52996094 -6.0859375 4.99804688 C-2.2265625 1.11328125 -2.2265625 1.11328125 0 0 Z " fill="#575757" transform="translate(48,119)"/>
<path d="M0 0 C0 3.56229451 -0.76109009 4.41109679 -2.875 7.1875 C-3.40867187 7.90292969 -3.94234375 8.61835938 -4.4921875 9.35546875 C-4.98976563 9.89816406 -5.48734375 10.44085938 -6 11 C-6.66 11 -7.32 11 -8 11 C-7.67 14.3 -7.34 17.6 -7 21 C-9.31248497 18.68751503 -9.39162501 18.03894341 -9.5625 14.875 C-9.48729882 9.70282973 -7.24505276 7.21255374 -3.7265625 3.62890625 C-3.15679687 3.09136719 -2.58703125 2.55382812 -2 2 C-1.34 1.34 -0.68 0.68 0 0 Z " fill="#525252" transform="translate(32,134)"/>
<path d="M0 0 C0.66 0.33 1.32 0.66 2 1 C0.87469572 4.37591285 -0.16053617 5.28446799 -2.8125 7.5625 C-3.49957031 8.16191406 -4.18664062 8.76132813 -4.89453125 9.37890625 C-6.86555845 10.89648749 -8.73964261 11.97902958 -11 13 C-7.92877136 7.96318503 -4.27083334 4.05489233 0 0 Z " fill="#4C4C4C" transform="translate(85,171)"/>
<path d="M0 0 C0.33 0.99 0.66 1.98 1 3 C-2.63 6.3 -6.26 9.6 -10 13 C-10.66 12.67 -11.32 12.34 -12 12 C-8.04 8.04 -4.08 4.08 0 0 Z " fill="#2F2F2F" transform="translate(339,209)"/>
<path d="M0 0 C0.33 0.66 0.66 1.32 1 2 C-0.3125 4.625 -0.3125 4.625 -2 7 C-2.66 7 -3.32 7 -4 7 C-4 7.66 -4 8.32 -4 9 C-5.65 9.33 -7.3 9.66 -9 10 C-8.06409496 8.8944811 -7.12620142 7.79064547 -6.1875 6.6875 C-5.66542969 6.07261719 -5.14335937 5.45773438 -4.60546875 4.82421875 C-3.12827531 3.14575321 -1.59960869 1.56117966 0 0 Z " fill="#2B2B2B" transform="translate(424,124)"/>
<path d="M0 0 C1.32 0.66 2.64 1.32 4 2 C2.25364835 2.53293835 0.50272348 3.05090663 -1.25 3.5625 C-2.22453125 3.85253906 -3.1990625 4.14257812 -4.203125 4.44140625 C-6.96243932 4.99249836 -8.3912824 4.93789609 -11 4 C-7.44284458 1.56080771 -5.29702416 0.76127644 -1 1 C-0.67 0.67 -0.34 0.34 0 0 Z " fill="#585858" transform="translate(287,405)"/>
<path d="M0 0 C0.66 0.99 1.32 1.98 2 3 C1.34 3 0.68 3 0 3 C-0.33 3.66 -0.66 4.32 -1 5 C-2.15922313 6.07304587 -3.35080364 7.11158122 -4.5625 8.125 C-5.20316406 8.66382813 -5.84382813 9.20265625 -6.50390625 9.7578125 C-6.99761719 10.16773438 -7.49132812 10.57765625 -8 11 C-8.66 10.67 -9.32 10.34 -10 10 C-6.7 6.7 -3.4 3.4 0 0 Z " fill="#5A5A5A" transform="translate(405,143)"/>
<path d="M0 0 C1.53271273 4.58798777 0.02911182 6.77944742 -2 11 C-3.65 10.67 -5.3 10.34 -7 10 C-6.06414063 9.89365234 -6.06414063 9.89365234 -5.109375 9.78515625 C-2.80770679 9.19995468 -2.80770679 9.19995468 -1.953125 6.93359375 C-1.72109375 6.10988281 -1.4890625 5.28617188 -1.25 4.4375 C-1.00765625 3.61121094 -0.7653125 2.78492188 -0.515625 1.93359375 C-0.34546875 1.29550781 -0.1753125 0.65742188 0 0 Z " fill="#636363" transform="translate(31,177)"/>
<path d="M0 0 C0.33 0.66 0.66 1.32 1 2 C-3.455 2.495 -3.455 2.495 -8 3 C-8.33 2.34 -8.66 1.68 -9 1 C-5.68042385 -1.0901035 -3.73206842 -1.21040057 0 0 Z " fill="#282828" transform="translate(75,279)"/>
<path d="M0 0 C0.33 0.99 0.66 1.98 1 3 C-1.31 4.98 -3.62 6.96 -6 9 C-6 7.02 -6 5.04 -6 3 C-5.34 3.66 -4.68 4.32 -4 5 C-2.68 3.35 -1.36 1.7 0 0 Z " fill="#747474" transform="translate(394,154)"/>
<path d="M0 0 C1.32 0.33 2.64 0.66 4 1 C2.7934375 1.804375 2.7934375 1.804375 1.5625 2.625 C-1.46508424 5.43105369 -1.72510809 6.96825194 -2 11 C-2.33 11 -2.66 11 -3 11 C-3.36923077 4.6 -3.36923077 4.6 -1.5 1.5625 C-1.005 1.046875 -0.51 0.53125 0 0 Z " fill="#434343" transform="translate(25,317)"/>
<path d="M0 0 C4.21912747 0.4794463 6.79663178 1.16625119 10 4 C8.72125 3.896875 7.4425 3.79375 6.125 3.6875 C5.04605469 3.60048828 5.04605469 3.60048828 3.9453125 3.51171875 C2 3 2 3 0 0 Z " fill="#727272" transform="translate(74,278)"/>
<path d="M0 0 C0.66 0.33 1.32 0.66 2 1 C1.01 2.485 1.01 2.485 0 4 C-0.66 4 -1.32 4 -2 4 C-2.33 4.66 -2.66 5.32 -3 6 C-3.99 5.34 -4.98 4.68 -6 4 C-4.02 2.68 -2.04 1.36 0 0 Z " fill="#5D5D5D" transform="translate(180,174)"/>
<path d="M0 0 C0.33 0 0.66 0 1 0 C1.33 1.98 1.66 3.96 2 6 C2.99 6.33 3.98 6.66 5 7 C4.01 7.99 3.02 8.98 2 10 C0 8 0 8 -0.1953125 6.0546875 C-0.13020833 4.03645833 -0.06510417 2.01822917 0 0 Z " fill="#5F5F5F" transform="translate(275,265)"/>
</svg>
